<?xml version="1.0" standalone="yes"?>
<svg width="537" height="268">
<path style="fill:#070506; stroke:none;" d="M0 0L0 16C4.12521 18.1009 9.73115 20.665 13.4321 23.3125C15.6875 24.9259 16.2646 27.8628 19.1435 28.6829C26.9056 30.8939 33.4274 26.1316 40.0394 23.2323C54.1133 17.0607 63.0308 15.886 68 0L0 0z"/>
<path style="fill:#1e1818; stroke:none;" d="M0 16C0 22.8633 -1.7067 31.6143 7 33L7 37L10 34C16.9819 38.686 25.4881 34.6491 32.0895 31.2716C46.3694 23.9655 69.1496 16.8636 75 0C65.0718 0.118225 67.3572 7.88254 60.9059 13.3194C53.2339 19.7851 34.9748 27.8092 25 28.8256C16.0977 29.7327 8.62186 18.6873 0 16z"/>
<path style="fill:#3e2b24; stroke:none;" d="M10 34L7 37L7 33L0 30L3 45L35 37L35 33C55.25 32.0613 78.7292 20.9843 85 0C73.8846 0.0012207 70.8159 6.51126 62.9252 13.5394C52.205 23.0875 24.4678 40.7047 10 34z"/>
<path style="fill:#4f3528; stroke:none;" d="M35 33L35 37L47 36L49 39L49 40L49 41C45.096 44.4108 47.1812 51.2567 42.74 55.25C37.4442 60.0117 31.2123 66.6827 24.9961 70.037C13.0422 76.4875 0 73.7112 0 90L9 86L8 83L21 81C20.7277 87.2289 15.0406 93.1204 15.7677 98.9097C16.7786 106.957 32.3729 113.22 37.767 106.786C44.9589 98.2079 43.417 83.7674 45 73L49 73L49 67L56 68C54.1911 58.2563 57.2879 55.347 60 47L71 46C69.4951 50.8677 70.2146 63.1777 78.8009 61.169C87.5858 59.1138 80.9616 38.0786 87.1481 32.5332C99.2023 21.7282 102.642 39.4997 112.024 38.534C116.85 38.0371 117.447 32.8443 118.44 29.1698C120.98 19.7724 120 9.71954 120 0L118 0L116 33L110 33C108.029 26.2316 89.3974 21.0043 83 21L86 19L90 0C81.5299 0.673431 74.1031 16.2395 67.8341 21.8997C59.7574 29.192 45.4765 32.0576 35 33z"/>
<path style="fill:#674633; stroke:none;" d="M90 0L83 21C90.1865 21.0841 106.143 26.6277 110 33L116 33L118 0L90 0z"/>
<path style="fill:#332118; stroke:none;" d="M120 0C120 9.90167 120.616 19.5676 118.215 29.1698C117.376 32.5248 116.29 37.5341 112.024 38.0787C108.333 38.5498 106.011 33.5174 103.561 31.564C99.0936 28.0025 91.525 28.246 87.1481 31.804C80.1876 37.4623 87.8947 57.8916 78.8009 60.5424C70.6755 62.911 70.1414 50.3751 71 46L60 47C55.9155 54.6651 53.8058 58.7836 56 68L49 67L49 73L45 73C42.4023 84.3643 45.1355 97.6885 37.0988 106.786C31.8924 112.68 17.3081 106.448 16.2338 98.9097C15.443 93.3604 20.8726 87.1394 21 81L8 83L9 86C-3.67893 90.682 0 103.539 0 115L25 115C27.2271 125.22 40.6155 122.947 44.4915 114.871C48.9064 105.672 44.8308 95.2704 47.9159 86.0147C50.6328 77.8635 58.2691 81.4321 61.9722 75.6968C64.9833 71.0332 61.963 61.5892 63 56C66.855 57.6351 69.4805 60.6008 73.0895 62.581C91.4635 72.6628 82.9968 38.4475 92.189 33.3187C100.909 28.4533 104.02 42.9714 112.035 42.7184C115.955 42.5946 117.697 37.1843 119.296 34.2855C124.164 25.4637 122.918 9.92661 123 0L120 0z"/>
<path style="fill:#1a0f0d; stroke:none;" d="M123 0C122.789 10.2263 124.038 25.2963 118.771 34.2855C117.232 36.9117 115.65 42.188 112.035 42.4043C103.745 42.9005 101.123 27.3339 91.3441 33.3179C83.1413 38.3377 91.4258 68.1367 76.0039 63.4321C71.0698 61.9269 68.1093 57.3363 63 56C61.6569 61.6412 64.7569 70.0386 61.9715 74.8557C58.5344 80.7996 50.5132 77.4406 47.9159 85.0401C44.7522 94.2966 48.7387 104.645 44.4915 113.946C40.6316 122.399 28.5841 124.775 25 115L0 115L3 124C5.39175 119.971 9.45496 118.491 14 118C14 124.096 11.4141 137.379 17 141C13.1459 150.096 15.8104 161.36 15.9846 171C16.1007 177.427 14.0007 183.491 14 190L18 190L21 205L25.8287 213.486L33.4012 223.17L35.8434 238.996L42.6898 249.104L47.7423 266.972L59 268L88 268C87.5924 258.506 82.5892 251.441 77 244L81 239C103.358 239 124.675 234.754 145 226L144 213C147.952 212.481 157.152 212.895 160.961 213.971C164.033 214.84 167.095 218.871 170.505 216.777C173.355 215.026 174.426 209.793 176.024 207C182.469 195.739 184.808 182.71 193.425 172.441C201.16 163.223 211.349 163.754 222 160.197C227.435 158.381 231.317 154.333 236.428 152.04C247.394 147.12 265.162 141.902 277.015 141.054C285.336 140.458 293.566 142.877 301.91 141.871C308.099 141.125 314.245 137.838 320.09 135.82C325.467 133.964 332.647 133.915 335 128C325.222 127.255 326 117.62 326 110L260.961 111.093L227 114L222.09 41L227.796 23.9992L229 0L123 0z"/>
<path style="fill:#162029; stroke:none;" d="M229 0C228.995 7.07428 229.186 16.299 227.761 23.0895C226.48 29.1927 222.544 33.4099 222.09 40C220.424 64.1548 223.518 90.6105 227 114C238.505 114.813 248.798 111.673 259.985 111.228C273.571 110.687 288.045 111.651 302 111.039C309.505 110.71 323.286 114.199 327 106L340 107L340 106L337 105L337 103L340 102L330 79L326 78L326 98L277 108.429L256 102L256 106C247.9 107.01 239.654 114.919 231.34 109.062C223.778 103.733 227.666 90.5359 227.96 83C228.546 67.9447 222.355 53.4341 224.109 38.0046C224.661 33.1435 229.203 31.6291 230 27L235 38L233 48C238.44 48.8665 242.963 51.6343 248.17 52.7261C254.522 54.0583 260.979 51.3337 266.152 56.5332C269.162 59.5589 272.798 65.8182 273.672 70C275.006 76.3824 270.188 85.7989 281.001 84.8218C284.791 84.4793 293.745 83.0443 295.972 79.6829C298.739 75.5075 296.274 69.2764 295.88 64.8302C294.783 52.4637 295.081 44.1562 287.236 33.1852C280.956 24.4022 263.059 21.0011 253 21L253 18L231.488 14.4275L231 0L229 0z"/>
<path style="fill:#38393b; stroke:none;" d="M231 0L231.357 15.1065L253 18L253 21C273.669 21.0137 286.889 31.2042 295.141 49.2855C297.301 54.0183 295.662 58.9777 295.553 63.9105C295.268 76.8119 297.408 82.9638 281.001 84.6798C270.417 85.7867 275.056 74.9884 273.686 69C272.797 65.1128 269.615 59.4573 266.892 56.5332C261.97 51.2476 255.307 53.9927 249.09 52.7261C243.866 51.6621 239.498 48.7087 234 48C233.86 55.0293 230.637 67.2408 235 73L235 74L233 84L240 84L237 89C248.931 88.083 255.566 73.2709 251 63C259.311 59.9769 272.204 66.3546 269.678 77C268.459 82.1387 263.166 84.7409 259.71 88.2315C251.482 96.5426 245.778 109.568 233 104C237.349 114.862 248.008 107.712 256 106L256 102C263.378 102.967 267.969 108.227 276 108.625C293.175 109.476 309.501 101.389 326 98L325.669 48L347 0L231 0z"/>
<path style="fill:#060405; stroke:none;" d="M330 79L340 102L337 103L337 105L340 106L340 107L327 106C324.599 114.122 324.126 127.643 335 128C331.784 133.297 325.617 133.776 320.09 135.513C313.831 137.479 307.543 141.098 300.961 141.871C292.644 142.848 284.384 140.444 276.039 141.054C256.597 142.475 239.464 153.006 222 159.815C215.112 162.5 206.783 162.398 200.054 165.513C192.743 168.898 188.278 179.101 184.906 185.83C175.414 204.774 171.39 224.861 163 244L178 245C179.556 242.674 180.444 242.674 182 245L185 244L185 250L186 250L189 242L189 252L183 250L182 250L179 252L179 250C174.037 251.406 161.31 253.566 158 249L147 262L146 254L135 250C131.218 252.253 127.175 251.353 128 257C122.959 258.476 125.089 263.769 125 268L537 268C537 253.588 541.106 231.944 536.491 218.325C534.478 212.386 527.67 209.481 525.143 203.946C522.04 197.145 524.314 188.887 517.557 183.843C508.204 176.862 491.621 177.964 481.174 172.91C472.518 168.724 467.592 153.039 455.105 156.322C449.086 157.904 443.196 172.236 438.715 176.896C434.935 180.825 430.261 183.622 426.985 188.09C421.894 195.03 416.999 205.428 408.985 209.543C394.783 216.835 372.81 204.096 361 197.32C350.59 191.347 337.379 179.161 334.414 166.961C331.26 153.978 336.385 131.568 340.684 119.09C342.753 113.082 348.27 109.028 350.235 102.999C354.31 90.5002 349.105 71.6287 367 68L358 81C365.318 78.128 386.804 66.5838 392 76C406.875 75.959 422.306 74.3586 436 69.152C441.831 66.9349 449.852 63.2662 452 57L459 57C457.172 53.8988 455.519 53.5456 452 54C449.465 47.6681 442.299 53.563 437 54L437 49C441.104 49.4769 443.891 50.0075 446 46L433 46L427 38L427 37L429 34L415 34L415 33L426 29L423 25L428 25L426 19L446 20C435.656 12.5199 424.404 14.0342 412 14L412 13L417 8C410.436 6.6452 406.54 1.93475 400.816 0.317902C390.72 -2.53351 376.497 0 366 0C360.891 0 350.72 -1.93842 346.613 1.60339C343.437 4.34314 342.34 9.50006 340.151 13C331.296 27.1586 325 42.1 325 59C325 65.227 322.652 76.6191 330 79z"/>
<path style="fill:#281a0a; stroke:none;" d="M403 0C405.487 6.21573 410.832 7.16943 417 8L412 13L412 14C425.115 14.1086 434.42 14.017 446 20L426 19L428 25L423 25L426 29L415 33L415 34L429 34L427 37L427 38L433 46L446 46C443.37 49.2686 441.023 49.1997 437 49L437 54C442.347 53.7663 448.746 48.8111 452 54L462 56L461 50L474 45C475.827 51.1537 483.363 51.6576 489 53C488.83 44.7828 481.711 26.9887 494 25L474 0L403 0z"/>
<path style="fill:#7a6051; stroke:none;" d="M474 0L494 25C486.204 25.6164 487.069 31.9303 488.66 38.0147C491.02 47.0325 498.618 54.6064 500.682 63.0147C502.098 68.7825 499.259 74.6438 498.259 80.1698C497.062 86.7869 498 94.2825 498 101C501.185 101.93 503.684 104.366 507.015 104.852C513.515 105.8 532.416 98.6947 535.972 92.7755C538.251 88.9818 537 82.2782 537 78C528.949 82.0052 513.95 93.0586 504.483 85.3966C498.506 80.5591 503.186 70.482 502.981 64C502.655 53.6927 485.075 35.7114 502 31L498 26L498 0L474 0z"/>
<path style="fill:#9e8372; stroke:none;" d="M498 0L498 26L502 31C484.324 33.7374 502.423 54.8754 502.942 64C503.299 70.2831 498.177 80.4837 503.724 85.3966C506.335 87.7093 510.782 87.0342 514 86.9961C526.937 86.843 536.998 81.5725 537 68C525.407 72.2252 519.809 65.7242 509 65L509 58C499.032 54.9326 502.687 46.3534 503 39L507 39C506.237 31.6245 510.596 29.2076 512.857 22.9105C515.647 15.1415 515.05 7.74896 513 0L498 0z"/>
<path style="fill:#c5aa94; stroke:none;" d="M513 0C514.318 7.78632 515.589 14.1404 512.857 21.9606C510.548 28.5703 505.493 31.2517 507 39L503 39C502.115 46.0162 498.35 56.1983 509 58L509 65C514.966 65.7935 532.065 76.3768 536.397 66.7716C537.652 63.9881 537 59.9841 537 57C526.007 56.8714 513.587 43.4652 514 33C518.549 31.4585 521.331 26.632 522 22C531.805 20.5587 527.019 7.00873 527 0L513 0z"/>
<path style="fill:#e2cdb8; stroke:none;" d="M527 0C527.005 7.30145 531.414 19.5385 522 22L514 33C513.123 44.2117 525.367 56.9589 537 57L537 0L527 0z"/>
<path style="fill:#2f2724; stroke:none;" d="M230 27C228.841 30.7221 224.982 32.21 224.228 36.0548C221.163 51.686 228.235 66.7341 227.946 82C227.804 89.486 223.829 102.29 229.854 108.436C233.582 112.239 241.181 111 246 111L246 110C228.129 109.986 228.338 86.4834 235 74L235 73C229.984 66.9806 234.831 54.3238 233 47C232.011 43.0422 232.527 37.3817 235 38L230 27z"/>
<path style="fill:#3f2d21; stroke:none;" d="M487 33L489 53C483.341 50.9296 476.88 50.8209 474 45L461 50L462 56L433.004 72.7948L409 79L409 82C416.459 86.7978 429.565 93.561 426 104L433 104L434 116C441.738 120.078 445.486 122.804 455 123L455 122L453 119L467 114L456 146C449.501 147.334 446.176 148.104 440 145C441.129 151.083 441.518 157.238 437 162L437 158L436 158L436 168L441 160L447 164L448 164C450.185 159.806 453.627 155.295 459.001 156.448C469.483 158.698 471.908 168.681 480.3 172.91C490.881 178.242 511.128 176.832 519.152 186.133C527.563 195.884 523.101 209.878 537 217L537 156C537 146.269 539.99 136.892 529 134L531 131L531 130L528 119C523.945 119.011 518.971 118.752 515.509 121.278C512.383 123.559 511.857 127.141 507.826 128.615C502.015 130.739 496.832 128.754 491 128.171C484.346 127.505 480.219 128.381 478 121L473 121L479 110L468 119L468 110L448 108L458 118C450.072 118 444.816 118.404 439.044 112.27C436.526 109.594 433.403 104.961 437.322 101.938C441.659 98.5922 453.771 97.2123 459 98.4144C462.229 99.1566 465.39 101.534 468.852 100.664C471.584 99.9766 471.944 97.384 472.41 94.9954C473.905 87.3257 480.45 81.1012 481 74L484 74C483.852 66.1073 485.15 66.1788 492 68L496 63L497 69L498 69L489 33L487 33z"/>
<path style="fill:#6b585a; stroke:none;" d="M3 45L1 39L0 39L0 79C15.6973 75.7185 35.5088 67.5262 44.7716 53.7369C47.4494 49.7506 46.1583 44.7501 49 41L49 40L49 39L47 36L3 45z"/>
<path style="fill:#604530; stroke:none;" d="M492 48L498 78L500 78C500.265 65.1465 500.286 58.6976 492 48z"/>
<path style="fill:#1f1414; stroke:none;" d="M452 57C441.909 74.9907 409.88 75.852 392 76C388.799 66.3553 363.991 77.5849 358 81L367 68C348.391 70.0876 354.55 91.1483 349.867 102.999C347.673 108.551 342.693 112.505 340.684 118.17C331.452 144.192 329.402 172.694 352 191.561C357.571 196.212 363.645 200.262 371 201L362.972 178.028L360 175L361 179L356 179L356 171L360 171L359 154C354.553 150.302 354.181 146.125 361 147C363.427 140.617 366.443 140.019 373 140L366 124L370 124L370 119L366 119C366.006 110.726 373.058 102.764 369 95L391.17 105.277L410 105L410 102C418.019 101.739 419.505 95.9916 413.54 90.6227C409.085 86.6124 402.804 85.1236 397 85L394 78C405.725 78 422.156 77.8355 433 73.2361C442.353 69.2693 449.927 62.1099 459 58L452 57z"/>
<path style="fill:#2f414b; stroke:none;" d="M251 63C254.368 73.5809 248.955 87.1259 237 89L240 84L234 83C232.973 86.2407 232.182 89.6553 231.514 93C230.128 99.9369 233.975 109.89 242.946 106.138C250.184 103.111 255.465 92.6841 261.259 87.4738C264.178 84.8496 267.95 82.8758 269.397 78.9961C273.518 67.9429 260.609 58.3763 251 63z"/>
<path style="fill:#2c180d; stroke:none;" d="M492 68C484.762 64.9318 483.44 65.9929 484 74L481 74C479.886 81.0458 473.891 87.2762 472.228 94.9954C471.761 97.1591 471.197 99.5224 468.852 100.342C465.62 101.471 462.134 98.7358 459 98.2238C453.718 97.3607 440.73 98.1938 436.604 101.938C433.435 104.814 436.03 109.762 438.239 112.27C443.968 118.773 449.974 118 458 118C457.412 114.597 456.351 113.728 453 113L453 114L455 116C450.487 115.79 447.233 115.148 445 111L450 112L448 108C454.829 109.009 461.352 113.392 468 110L468 119C480.771 114.622 480.06 95.1948 494 93C497.539 81.5932 498.004 74.8359 496 63L492 68z"/>
<path style="fill:#684a47; stroke:none;" d="M426 87C430.819 89.5212 431.763 93.8305 432 99L436 95L469 98L464.572 83.9961L464 68C452.427 66.6409 428.24 73.2298 426 87z"/>
<path style="fill:#775957; stroke:none;" d="M441 87C446.922 87.0701 450.049 92.7064 454.985 92.7037C463.551 92.699 460.906 75.8787 460 71C446.755 71 441.009 72.7041 441 87z"/>
<path style="fill:#281f22; stroke:none;" d="M394 78L397 85C402.82 85.2666 409.237 87.2028 413.54 91.3511C418.846 96.4661 417.324 101.446 410 102L410 105L392.09 105.277L369 95L366 119L370 119L370 124L366 124L373 140C366.27 140.004 362.932 140.033 361 147C353.904 145.27 353.308 150.808 359 154L360 171L356 171L356 179L361 179L360 175C364.703 178.049 364.197 189.564 367.245 195.015C374.301 207.63 402.335 219.561 414 206C403.778 209.628 378.107 207.065 379 192C388.198 192 406.4 199.353 410 188C401.103 186.876 392.272 187.434 390 177L398 179C397.567 173.393 394.277 171.212 389 170L393 173L393 175C387.619 174.404 374.095 164.809 382.434 159.028C385.07 157.201 389.968 157.907 393 158.039C401.958 158.432 424.918 159.726 429 168L425 173C430.546 170.488 431.665 163.428 425.695 160.279C421.117 157.863 415.011 159.485 410 158L410 156C415.893 154.906 422.065 155.766 424 149C421.192 146.799 419.539 143.286 416.61 141.348C410.862 137.544 406.278 139.566 406 131L414 133L414 129L411 129C409.86 119.745 414.663 115.377 420.715 108.3C422.929 105.711 427.019 103.69 427.377 99.9753C427.835 95.2229 421.354 89.6837 417.95 87.1281C415.242 85.0952 412.07 83.3864 409 82L409 79L427 77C417.11 72.8502 404.282 77.9989 394 78z"/>
<path style="fill:#5d4334; stroke:none;" d="M497 84C494.617 90.7125 492.472 103.466 486 107L490 96C482.663 100.907 475.221 112.457 473 121L478 121C479.463 128.981 484.351 127.426 491 128.289C497.254 129.102 503.418 131.192 509.521 128.271C517.246 124.573 517.647 119.087 528 119L531 130L531 131L529 134L537 136L537 93C529.447 96.8674 517.52 105.013 509.001 104.887C504.881 104.826 501.98 101.651 498 101L497 84z"/>
<path style="fill:#4a321f; stroke:none;" d="M480 108L481 108L490 96L486 107C491.109 105.321 492.619 97.8319 494 93C486.453 93.5809 480.904 100.799 480 108z"/>
<path style="fill:#5a4d54; stroke:none;" d="M425 145L425 142L420 142L420 141L425 140C423.005 129.777 423.913 113.63 428 104C418.222 105.632 423.485 118.385 422.942 124.985C422.34 132.311 410.409 143.36 425 145z"/>
<path style="fill:#7f6461; stroke:none;" d="M433 104C422.262 104.819 425.179 120.114 424.985 128C424.917 130.796 423.157 135.936 425.002 138.342C429.31 143.96 430.997 129.621 431 128C431.006 124.676 430.854 121.313 431.17 118C431.615 113.32 432.411 108.662 433 104z"/>
<path style="fill:#403a3e; stroke:none;" d="M422 106C415.417 113.327 408.831 119.134 411 129L414 129L414 133L406 131C406.095 139.025 409.748 139.817 417 141L422.451 128.711L422 106z"/>
<path style="fill:#755453; stroke:none;" d="M432 107C431.892 120.049 434.757 137.312 420 141L420 142L425 142L425 145L419 144L419 145C430.078 150.33 435.149 144.474 433 134C437.788 136.443 441.144 143.366 446.129 144.677C459.058 148.079 466.085 123.195 467 114L453 119L455 122L455 123L434 116L432 107z"/>
<path style="fill:#4c393d; stroke:none;" d="M382 136C392.116 135.118 399.199 130.645 402.995 120.999C404.015 118.408 405.973 114.204 403.968 111.603C401.607 108.539 377.496 106.346 375.607 110.318C372.419 117.02 379.288 129.983 382 136z"/>
<path style="fill:#100302; stroke:none;" d="M445 111C446.542 115.759 450.46 115.903 455 116L445 111z"/>
<path style="fill:#070506; stroke:none;" d="M3 124L0 123L0 268L47 268L42.5278 247.319L35.75 238L28.0231 215.722L21 205L18 190L14 190L15.9985 172L17 141C11.7599 135.868 14 124.911 14 118C9.40102 118.248 4.67106 119.323 3 124z"/>
<path style="fill:#624841; stroke:none;" d="M433 134C434.259 144.397 431.206 148.05 420 146L424 149C421.053 155.33 416.02 154.566 410 156L410 158C415.97 160.47 424.473 157.132 428.552 163.479C432.497 169.619 425.196 172.425 421 174.474C410.95 179.382 408.805 182.492 397 181C401.114 188.249 410.925 185.746 418 186C414.201 189.678 409.505 193.723 404 194.412C397.178 195.266 386.868 189.021 386 200C397.661 204.591 405.683 211.529 417 203L417 202C405.413 203.994 403.686 201.999 393 198L393 196C399.354 194.618 416.489 192.085 422 195C428.25 186.973 435.549 179.941 441.905 172C445.87 167.047 448.679 162.073 441 160L436 168C435.999 163.145 431.709 148.682 436.318 145.828C441.882 142.382 452.141 153.765 456 143C445.669 145.121 442.491 142.529 436 134L433 134z"/>
<path style="fill:#2f1a19; stroke:none;" d="M437 162C440.602 159.487 443.846 147.828 438.586 145.176C433.368 142.545 434.101 152.603 434.704 154.91C435.341 157.342 436.445 159.543 437 162z"/>
<path style="fill:#180908; stroke:none;" d="M393 175L393 173L389 170L414 174L414 179L425 174L429 168C426.537 159.707 401.257 158.217 393 158.015C389.972 157.94 384.264 156.982 381.742 159.028C373.786 165.482 387.373 174.693 393 175z"/>
<path style="fill:#292018; stroke:none;" d="M450 159L436 180C441.143 176.066 451.374 166.043 450 159z"/>
<path style="fill:#2c262b; stroke:none;" d="M405 170L405 169C400.901 166.823 400.085 163.532 405 162C394.322 157.521 394.475 168.463 405 170z"/>
<path style="fill:#454646; stroke:none;" d="M418 170L418 166C413.547 165.716 406.407 160.967 402.333 162.657C398.651 164.186 402.013 168.132 404.109 169.196C408.634 171.494 413.232 170.602 418 170z"/>
<path style="fill:#5d4c42; stroke:none;" d="M398 174L398 178L413 179L413 175L398 174z"/>
<path style="fill:#4a282d; stroke:none;" d="M401 174L401 175L413 175L413 179L390 177C391.35 187.734 401.136 187.3 410 188L407 194L418 186C410.004 185.154 403.051 187.541 397 181C404.864 182.46 414.488 184.455 414 174L401 174z"/>
<path style="fill:#463236; stroke:none;" d="M379 192C376.994 204.861 399.04 208.993 409 209L409 208L386 200C386.706 195.637 388.775 194.016 393 193L379 192z"/>
<path style="fill:#362820; stroke:none;" d="M423 192L417 202L418 202L425 192L423 192z"/>
<path style="fill:#775b5a; stroke:none;" d="M393 196L393 198C403.31 203.515 416.765 209.448 421 193L393 196z"/>
<path style="fill:#281d17; stroke:none;" d="M144 213L145 226L125 234.062L81 239L77 244C81.5814 252.155 87.244 258.434 88 268L125 268L128 257L135 250L146 254L147 262L158 252L159 252L159 242L164 245L167 237L167 236L164 233L163 233L163 236C151.14 234.107 163.72 229.374 169 229L170 218C161.912 215.221 152.842 210.845 144 213z"/>
<path style="fill:#5a5859; stroke:none;" d="M281 225L281 226L283 228L284 228L281 225z"/>
<path style="fill:#827973; stroke:none;" d="M147 226L147 236L150 236L150 232L149 232L149 235L148 235L148 227L149 227L149 230L150 230L150 226L147 226z"/>
<path style="fill:#413a37; stroke:none;" d="M150 226L150 230L153 230L153 226L152 226L152 229L151 229L150 226z"/>
<path style="fill:#908986; stroke:none;" d="M153 226L153 230L154 230L154 227L155 227L155 235L154 235L154 232L153 232L153 236L156 236L156 226L153 226z"/>
<path style="fill:#413f40; stroke:none;" d="M173 226L173 236L174 236L174 227L180 229L173 226z"/>
<path style="fill:#292728; stroke:none;" d="M197 226L196 236C198.789 233.563 198.361 229.244 197 226z"/>
<path style="fill:#a8a6a7; stroke:none;" d="M198 226L198 236C207.917 235.958 204.434 229.141 198 226z"/>
<path style="fill:#484647; stroke:none;" d="M200 226L203 229L203 228L200 226z"/>
<path style="fill:#5d5b5c; stroke:none;" d="M223 228L223 229L229 227L223 228z"/>
<path style="fill:#242323; stroke:none;" d="M229 226L229 236L230 236L233 234L233 233L230 233L229 226z"/>
<path style="fill:#626061; stroke:none;" d="M248 226C247.282 229.884 246.233 234.984 251 236L251 235C248.835 232.128 248.835 229.872 251 227L248 226z"/>
<path style="fill:#8e8c8d; stroke:none;" d="M265.667 226.333L266.333 226.667L265.667 226.333z"/>
<path style="fill:#bebcbd; stroke:none;" d="M280 226L280 235L282 235L283 226L280 226z"/>
<path style="fill:#262425; stroke:none;" d="M299 226L294 234L300 236L299 226z"/>
<path style="fill:#a7a5a6; stroke:none;" d="M300 226L300 236L302 234L303 234L304 234L306 236L306 229L302 230L302 226L300 226z"/>
<path style="fill:#434142; stroke:none;" d="M302 226L304 230L302 226z"/>
<path style="fill:#5c5a5b; stroke:none;" d="M307.333 226.667L307.667 227.333L307.333 226.667z"/>
<path style="fill:#b7b5b6; stroke:none;" d="M308.333 226.667L308.667 227.333L308.333 226.667z"/>
<path style="fill:#696768; stroke:none;" d="M309.333 226.667L309.667 227.333L309.333 226.667z"/>
<path style="fill:#e3e0dd; stroke:none;" d="M148 227L148 235L149 235C150.777 231.985 152.223 231.985 154 235L155 235L155 227L154 227L154 230L148 227z"/>
<path style="fill:#c4c2c3; stroke:none;" d="M174 227L174 235L176 235L176 230L179 235L180 235L180 229L174 227z"/>
<path style="fill:#edebec; stroke:none;" d="M227 227L227 235L228 235L227 227z"/>
<path style="fill:#8f8d8e; stroke:none;" d="M228 227L228 235L225 234L229 236L228 227z"/>
<path style="fill:#c9c7c8; stroke:none;" d="M249 227L249 235L250 235L253 230L253 236L255 236L255 229L249 227z"/>
<path style="fill:#989697; stroke:none;" d="M250.333 227.667L250.667 228.333L250.333 227.667z"/>
<path style="fill:#c1bfc0; stroke:none;" d="M265 227L265 229L267 229L267 227L265 227z"/>
<path style="fill:#454344; stroke:none;" d="M191 228L191 229L195 229L191 228z"/>
<path style="fill:#4e4e4e; stroke:none;" d="M204 236L205 236L208 230L208 229L211 229C206.164 227.463 204.864 232.051 204 236z"/>
<path style="fill:#3f3d3e; stroke:none;" d="M214 228L214 229L219 229L214 228z"/>
<path style="fill:#605e5f; stroke:none;" d="M237 228L237 231L238 231L239 228L237 228z"/>
<path style="fill:#494748; stroke:none;" d="M251 228L251 229L254 229L251 228z"/>
<path style="fill:#403e3f; stroke:none;" d="M258 228L258 229L262 229L258 228z"/>
<path style="fill:#4a4849; stroke:none;" d="M269 228L269 229L273 229L269 228z"/>
<path style="fill:#434142; stroke:none;" d="M294 228L294 229L297 229L294 228z"/>
<path style="fill:#343233; stroke:none;" d="M332 228L332 229L337 229L332 228z"/>
<path style="fill:#464445; stroke:none;" d="M338 228L338 229L341 229L338 228z"/>
<path style="fill:#383637; stroke:none;" d="M355 228L355 229L360 229L355 228z"/>
<path style="fill:#3d3b3c; stroke:none;" d="M368 228L368 229L372 229L368 228z"/>
<path style="fill:#413f40; stroke:none;" d="M375 228L375 229L380 229L375 228z"/>
<path style="fill:#454344; stroke:none;" d="M382 228L382 229L385 229L382 228z"/>
<path style="fill:#ddd6d1; stroke:none;" d="M157 235L159 235L159 230L163 233C161.081 227.226 157.363 230.341 157 235z"/>
<path style="fill:#665f5c; stroke:none;" d="M164 229C163.118 232.453 163.326 234.925 167 236L167 235L164 229z"/>
<path style="fill:#c2bcb8; stroke:none;" d="M165 229L165 235L167 235L169 229L165 229z"/>
<path style="fill:#8c8a8b; stroke:none;" d="M182 229L182 235L183 235L182 229z"/>
<path style="fill:#d4d2d3; stroke:none;" d="M183 229L183 235L184 235L183 229z"/>
<path style="fill:#555354; stroke:none;" d="M184 229L184 234L185 234L184 229z"/>
<path style="fill:#4b494a; stroke:none;" d="M186 229L186 234L187 234L186 229z"/>
<path style="fill:#d4d2d3; stroke:none;" d="M187 229L187 235L188 235L187 229z"/>
<path style="fill:#989697; stroke:none;" d="M188 229L188 235L183 235L183 236L189 236L188 229z"/>
<path style="fill:#3c3a3b; stroke:none;" d="M189 229L189 236L191 236L191 229L189 229z"/>
<path style="fill:#c2c0c1; stroke:none;" d="M190 230L190 232L195 235L196 235L192 231L192 230L195 230L190 230z"/>
<path style="fill:#797778; stroke:none;" d="M195 229L192 230L192 231C194.221 231.357 196.002 231.583 195 229z"/>
<path style="fill:#c5c5c5; stroke:none;" d="M208 229L208 230L210 235L212 235L212 229L208 229z"/>
<path style="fill:#343434; stroke:none;" d="M212 229L212 236L207 236L207 237C212.9 236.806 213.933 234.652 214 229L212 229z"/>
<path style="fill:#c2c2c2; stroke:none;" d="M214 229L214 235L215 235L216 230L218 230L219 235L220 235L220 229L214 229z"/>
<path style="fill:#bab8b9; stroke:none;" d="M225 236L224 230L227 231C223.547 227.192 220.78 233.255 225 236z"/>
<path style="fill:#c4c2c3; stroke:none;" d="M238 229L239 236L242 233L243 233L246 236L247 229L246 229L245 232L244 232L244 229L241 229L241 232L240 232L238 229z"/>
<path style="fill:#474546; stroke:none;" d="M244 229L244 232L245 232L246 229L244 229z"/>
<path style="fill:#c3c1c2; stroke:none;" d="M259 235L259 230L261 230L262 234L263 234L263 229C259.377 229.282 255.121 231.56 259 235z"/>
<path style="fill:#6d6b6c; stroke:none;" d="M265.667 229.333L266.333 229.667L265.667 229.333z"/>
<path style="fill:#c1bfc0; stroke:none;" d="M268 229L274 235L270 231L273 230L268 229z"/>
<path style="fill:#6e6c6d; stroke:none;" d="M273 229L270 231C272.235 231.545 274.017 231.667 273 229z"/>
<path style="fill:#706e6f; stroke:none;" d="M279.333 229.667L279.667 230.333L279.333 229.667z"/>
<path style="fill:#939192; stroke:none;" d="M283 229C284.388 234.068 285.566 235.822 291 236L289 229L290 235L286 234L286 229L283 229z"/>
<path style="fill:#565555; stroke:none;" d="M286 229L286 234L287 234L286 229z"/>
<path style="fill:#5d5b5c; stroke:none;" d="M288 229L288 234L289 234L288 229z"/>
<path style="fill:#363435; stroke:none;" d="M291 229L293 236L293 229L291 229z"/>
<path style="fill:#c9c7c8; stroke:none;" d="M293 229L293 231L298 231L298 229L293 229z"/>
<path style="fill:#686667; stroke:none;" d="M307 229L307 235L308 235L307 229z"/>
<path style="fill:#dddbdc; stroke:none;" d="M308 229L308 236L309 236L308 229z"/>
<path style="fill:#727071; stroke:none;" d="M309 229L309 236L310 236L309 229z"/>
<path style="fill:#333132; stroke:none;" d="M310 229L310 236L311 236L310 229z"/>
<path style="fill:#908e8f; stroke:none;" d="M311 229L313 236L311 229z"/>
<path style="fill:#b8b6b7; stroke:none;" d="M312 229L312 235L313 235L313 231L316 231L316 235L318 235L318 229L312 229z"/>
<path style="fill:#c3c1c2; stroke:none;" d="M320 229L322 235L324 230L324 238L326 238L326 229L320 229z"/>
<path style="fill:#5d5b5c; stroke:none;" d="M326 229L326 237L327 237L326 229z"/>
<path style="fill:#5e5c5d; stroke:none;" d="M331 229L331 236L334 236L334 232L333 232L333 235L332 235L331 229z"/>
<path style="fill:#b4b2b3; stroke:none;" d="M332 229L333 232L336 231L336 236L338 236L338 231L340 231L340 236L342 236C341.77 229.007 338.179 229.005 332 229z"/>
<path style="fill:#4c4a4b; stroke:none;" d="M341 229L342 236L343 236L344 229L341 229z"/>
<path style="fill:#cfcdce; stroke:none;" d="M344 229L347 237L349 230L346 232L344 229z"/>
<path style="fill:#959394; stroke:none;" d="M348 229L350 231L350 229L348 229z"/>
<path style="fill:#2e2c2d; stroke:none;" d="M350 229L349 233L350 233L350 229z"/>
<path style="fill:#4a4849; stroke:none;" d="M354 229L357 237L354 229z"/>
<path style="fill:#b3b1b2; stroke:none;" d="M355 229L355 235L357 235L357 230L359 230L359 236L361 236L361 231L364 231L364 235L365 235L365 229L355 229z"/>
<path style="fill:#696768; stroke:none;" d="M365 229L365 235L364 235L364 231L363 231L363 236C366.712 234.694 367.269 232.121 365 229z"/>
<path style="fill:#b0aeaf; stroke:none;" d="M368.603 230.046C365.448 232.437 369.214 237.365 372.397 234.954C375.553 232.563 371.785 227.635 368.603 230.046z"/>
<path style="fill:#a9a7a8; stroke:none;" d="M375 229L377 236L376 230L380 231L380 235L381 235L381 231L384 231L384 236L386 236L386 229L375 229z"/>
<path style="fill:#7a726e; stroke:none;" d="M159 230L159 234L162 236L163 236L159 230z"/>
<path style="fill:#403e3f; stroke:none;" d="M176 230L176 236L177 236L178 230L176 230z"/>
<path style="fill:#686667; stroke:none;" d="M180 230L180 235L179 235L179 231L178 231L178 236L181 236L180 230z"/>
<path style="fill:#393738; stroke:none;" d="M181 230L181 235L182 235L181 230z"/>
<path style="fill:#6e6e6e; stroke:none;" d="M216.667 230.333L217.333 230.667L216.667 230.333z"/>
<path style="fill:#7d7d7d; stroke:none;" d="M220 230L220 235L219 235L219 231L218 231L218 236L221 236L220 230z"/>
<path style="fill:#4b4a4a; stroke:none;" d="M221 230L221 234L222 234L221 230z"/>
<path style="fill:#626061; stroke:none;" d="M224.667 230.333L225.333 230.667L224.667 230.333z"/>
<path style="fill:#747273; stroke:none;" d="M251.667 230.333L252.333 230.667L251.667 230.333z"/>
<path style="fill:#4a4849; stroke:none;" d="M255 230L255 235L257 235L257 230L255 230z"/>
<path style="fill:#716f70; stroke:none;" d="M259.667 230.333L260.333 230.667L259.667 230.333z"/>
<path style="fill:#a6a4a5; stroke:none;" d="M263 230L263 234L258 235L258 236C261.864 235.555 264.625 234.2 263 230z"/>
<path style="fill:#312f30; stroke:none;" d="M282 230L282 236L283 236L284 230L282 230z"/>
<path style="fill:#d9d7d8; stroke:none;" d="M289 230L289 235L290 235L289 230z"/>
<path style="fill:#3f3d3e; stroke:none;" d="M318 230L319 238L324 237L324 236L320 230L318 230z"/>
<path style="fill:#7f7d7e; stroke:none;" d="M322.667 230.333L323.333 230.667L322.667 230.333z"/>
<path style="fill:#d7d5d6; stroke:none;" d="M332 230L332 235L333 235L332 230z"/>
<path style="fill:#706e6f; stroke:none;" d="M369.667 230.333L370.333 230.667L369.667 230.333z"/>
<path style="fill:#c6c4c5; stroke:none;" d="M376 230L376 235L377 235L376 230z"/>
<path style="fill:#928c89; stroke:none;" d="M150 231L150 232L153 232L150 231z"/>
<path style="fill:#444243; stroke:none;" d="M200 231L200 234L201 234L200 231z"/>
<path style="fill:#0d0b0c; stroke:none;" d="M201 231L201 234L202 234L201 231z"/>
<path style="fill:#424041; stroke:none;" d="M202 231L202 234L203 234L202 231z"/>
<path style="fill:#9e9f9e; stroke:none;" d="M209 231L206 236L212 236L212 235L209 231z"/>
<path style="fill:#959595; stroke:none;" d="M215 231L214 236L215 231z"/>
<path style="fill:#201e1f; stroke:none;" d="M224 231L224 234L226 234L226 231L224 231z"/>
<path style="fill:#585657; stroke:none;" d="M226 231L226 234L227 234L226 231z"/>
<path style="fill:#939192; stroke:none;" d="M250 231L250 235L251 235L250 231z"/>
<path style="fill:#817f80; stroke:none;" d="M258 231L258 234L259 234L258 231z"/>
<path style="fill:#232122; stroke:none;" d="M259 231L259 234L261 234L261 231L259 231z"/>
<path style="fill:#5e5c5d; stroke:none;" d="M261 231L261 234L262 234L261 231z"/>
<path style="fill:#302e2f; stroke:none;" d="M279 231L279 236L280 236L279 231z"/>
<path style="fill:#a19fa0; stroke:none;" d="M292 231L292 234L293 234L292 231z"/>
<path style="fill:#f3f1f2; stroke:none;" d="M293 231L293 235L294 235L293 231z"/>
<path style="fill:#dbd9da; stroke:none;" d="M301 231L301 233L304 233L304 231L301 231z"/>
<path style="fill:#6b696a; stroke:none;" d="M313 231L313 236L314 236L313 231z"/>
<path style="fill:#474546; stroke:none;" d="M315 231L315 236L316 236L315 231z"/>
<path style="fill:#939192; stroke:none;" d="M319 231L319 234L320 234L319 231z"/>
<path style="fill:#525051; stroke:none;" d="M321 231L324 234L324 233L321 231z"/>
<path style="fill:#2c2a2b; stroke:none;" d="M322 231L322 233L324 233L324 231L322 231z"/>
<path style="fill:#3b393a; stroke:none;" d="M335 231L335 236L336 236L335 231z"/>
<path style="fill:#2c2a2b; stroke:none;" d="M338 231L338 236L340 236L340 231L338 231z"/>
<path style="fill:#4a4849; stroke:none;" d="M361 231L361 235L362 235L361 231z"/>
<path style="fill:#2f2d2e; stroke:none;" d="M369 231L369 234L372 234L372 231L369 231z"/>
<path style="fill:#4f4d4e; stroke:none;" d="M377 231L377 236L378 236L377 231z"/>
<path style="fill:#777576; stroke:none;" d="M379 231L379 236L382 236L382 231L381 231L381 235L380 235L379 231z"/>
<path style="fill:#494748; stroke:none;" d="M383 231L383 235L384 235L383 231z"/>
<path style="fill:#727071; stroke:none;" d="M191 232L194 234L194 233L191 232z"/>
<path style="fill:#605e5f; stroke:none;" d="M246 232L246 235L247 235L246 232z"/>
<path style="fill:#666465; stroke:none;" d="M268 232L271 234L271 233L268 232z"/>
<path style="fill:#989697; stroke:none;" d="M191 236L196 236L195 233L191 236z"/>
<path style="fill:#6c6a6b; stroke:none;" d="M196.333 233.667L196.667 234.333L196.333 233.667z"/>
<path style="fill:#403e3f; stroke:none;" d="M238.333 233.667L238.667 234.333L238.333 233.667z"/>
<path style="fill:#9f9d9e; stroke:none;" d="M268 236L274 236L274 235L272 233L268 236z"/>
<path style="fill:#a9a7a8; stroke:none;" d="M293 235L293 236C295.993 235.936 297.346 236.054 298 233L293 235z"/>
<path style="fill:#a59f99; stroke:none;" d="M158 235L158 236L162 234L158 235z"/>
<path style="fill:#636162; stroke:none;" d="M230 234L230 238L233 234L230 234z"/>
<path style="fill:#5c5a5b; stroke:none;" d="M302.667 234.333L303.333 234.667L302.667 234.333z"/>
<path style="fill:#999798; stroke:none;" d="M321 236L324 234L321 236z"/>
<path style="fill:#3c3a3b; stroke:none;" d="M387 234L387 239L390 234L389 234L389 237L388 237L387 234z"/>
<path style="fill:#cac8c9; stroke:none;" d="M388 234L388 237L389 237L388 234z"/>
<path style="fill:#7b797a; stroke:none;" d="M174.667 235.333L175.333 235.667L174.667 235.333z"/>
<path style="fill:#848283; stroke:none;" d="M280.667 235.333L281.333 235.667L280.667 235.333z"/>
<path style="fill:#7f7d7e; stroke:none;" d="M316.667 235.333L317.333 235.667L316.667 235.333z"/>
<path style="fill:#979596; stroke:none;" d="M345 235L344 239L347 239L345 235z"/>
<path style="fill:#2f2d2e; stroke:none;" d="M183 236L183 237L189 237L183 236z"/>
<path style="fill:#4e4c4d; stroke:none;" d="M192 236L192 237L195 237L192 236z"/>
<path style="fill:#424041; stroke:none;" d="M198 236L198 237L203 237L198 236z"/>
<path style="fill:#2e2c2d; stroke:none;" d="M223 236L223 237L229 237L223 236z"/>
<path style="fill:#424041; stroke:none;" d="M258 236L258 237L262 237L258 236z"/>
<path style="fill:#464445; stroke:none;" d="M269 236L269 237L273 237L269 236z"/>
<path style="fill:#2e2c2d; stroke:none;" d="M285 236L285 237L291 237L285 236z"/>
<path style="fill:#4d4b4c; stroke:none;" d="M294 236L294 237L297 237L294 236z"/>
<path style="fill:#3a3839; stroke:none;" d="M347.333 236.667L347.667 237.333L347.333 236.667z"/>
<path style="fill:#494748; stroke:none;" d="M369 236L369 237L372 237L369 236z"/>
<path style="fill:#9c9a9b; stroke:none;" d="M320 237L320 239L325 239L320 237z"/>
<path style="fill:#4b494a; stroke:none;" d="M212 241L212 242L214 250L215 250L216 242L212 241z"/>
<path style="fill:#897e7b; stroke:none;" d="M144 242L144 245L146 245L146 242L144 242z"/>
<path style="fill:#bbb6ab; stroke:none;" d="M159 242L160 251L161 251L159 242z"/>
<path style="fill:#4d4e48; stroke:none;" d="M161 242L163 251L161 242z"/>
<path style="fill:#2e2c2d; stroke:none;" d="M178 242L177 246L178 242z"/>
<path style="fill:#8c8a8b; stroke:none;" d="M179 242L179 252L183 249L180 243L181 243L183 246L182 242L179 242z"/>
<path style="fill:#8e8c8d; stroke:none;" d="M187 242L188 251L189 251L189 242L187 242z"/>
<path style="fill:#9d9b9c; stroke:none;" d="M211.333 242.667L211.667 243.333L211.333 242.667z"/>
<path style="fill:#f2f0f1; stroke:none;" d="M212 242L212 251L213 251L214 242L212 242z"/>
<path style="fill:#595758; stroke:none;" d="M232 242C232 245.767 230.587 251.054 235 252L235 251L232 242z"/>
<path style="fill:#c4c2c3; stroke:none;" d="M233 242L233 251L234 251L235 246L237 246L238 251L239 251L239 245L233 242z"/>
<path style="fill:#6b696a; stroke:none;" d="M241 242L241 245L243 245L243 242L241 242z"/>
<path style="fill:#9e9c9d; stroke:none;" d="M298 242L298 251L299 251L300 242L298 242z"/>
<path style="fill:#757374; stroke:none;" d="M300 242L304 245L304 244L300 242z"/>
<path style="fill:#a09e9f; stroke:none;" d="M314 242L314 245L317 245L317 242L314 242z"/>
<path style="fill:#dbd9da; stroke:none;" d="M353 242L353 246L357 243L353 242z"/>
<path style="fill:#787878; stroke:none;" d="M369 242L369 251L370 251L369 242z"/>
<path style="fill:#cacaca; stroke:none;" d="M370 242L370 251L371 251L374 246L374 251L376 251L376 245L370 242z"/>
<path style="fill:#717171; stroke:none;" d="M371 242L375 245L375 244L371 242z"/>
<path style="fill:#605e5f; stroke:none;" d="M390 242L385 244L385 245L391 246L390 242z"/>
<path style="fill:#c8c6c7; stroke:none;" d="M391 242L391 248L392 248L391 242z"/>
<path style="fill:#9d9b9c; stroke:none;" d="M392 242L392 246L393 246L392 242z"/>
<path style="fill:#e1dfd7; stroke:none;" d="M159 243L159 251L160 251L159 243z"/>
<path style="fill:#e4e2e3; stroke:none;" d="M180 243L180 249L183 248L180 243z"/>
<path style="fill:#898788; stroke:none;" d="M213 243L213 246L214 246L213 243z"/>
<path style="fill:#bdbbbc; stroke:none;" d="M299 243L299 251L300 251L303 246L303 251L305 251L305 245L299 243z"/>
<path style="fill:#b3b1b2; stroke:none;" d="M355 243L353 251L355 251L355 243z"/>
<path style="fill:#7c7c7c; stroke:none;" d="M364 243L364 247L365 247L367 244L364 243z"/>
<path style="fill:#8a827c; stroke:none;" d="M148 244L148 245L152 245L148 244z"/>
<path style="fill:#858481; stroke:none;" d="M164 244L164 245L167 245L164 244z"/>
<path style="fill:#6f6d6e; stroke:none;" d="M172 244L172 245L176 245L172 244z"/>
<path style="fill:#6a6869; stroke:none;" d="M183.667 244.333L184.333 244.667L183.667 244.333z"/>
<path style="fill:#757374; stroke:none;" d="M191 244L191 245L196 245L191 244z"/>
<path style="fill:#727071; stroke:none;" d="M200 244L200 245L205 245L205 253L206 253L206 244L200 244z"/>
<path style="fill:#787677; stroke:none;" d="M210.333 244.667L210.667 245.333L210.333 244.667z"/>
<path style="fill:#7f7d7e; stroke:none;" d="M217 244L217 245L220 245L217 244z"/>
<path style="fill:#636162; stroke:none;" d="M226 252L226 247L225 247L225 251L224 251L224 245L228 245C222.229 242.768 220.552 250.083 226 252z"/>
<path style="fill:#7a7879; stroke:none;" d="M235 244L235 245L238 245L235 244z"/>
<path style="fill:#807e7f; stroke:none;" d="M245 244L245 245L249 245L245 244z"/>
<path style="fill:#b5b3b4; stroke:none;" d="M256 248L262 251L258 247L258 246L261 245C257.863 244.506 257 244.964 256 248z"/>
<path style="fill:#898788; stroke:none;" d="M265 244L265 245L269 245L265 244z"/>
<path style="fill:#7c7a7b; stroke:none;" d="M272 244L272 245L278 245L272 244z"/>
<path style="fill:#6d6b6c; stroke:none;" d="M287 244L287 247L288 247L289 244L287 244z"/>
<path style="fill:#535152; stroke:none;" d="M290 248L293 244L290 248z"/>
<path style="fill:#5f5d5e; stroke:none;" d="M295 246L297 247L298 247L296 244L295 246z"/>
<path style="fill:#838182; stroke:none;" d="M308 244L308 245L312 245L308 244z"/>
<path style="fill:#8d8b8c; stroke:none;" d="M319 244L323 248L323 244L319 244z"/>
<path style="fill:#666465; stroke:none;" d="M329 244L329 245L339 245L329 244z"/>
<path style="fill:#494748; stroke:none;" d="M339 244L340 251L342 253L343 253L343 245L339 244z"/>
<path style="fill:#565455; stroke:none;" d="M346 244L347 247L348 247L348 244L346 244z"/>
<path style="fill:#888687; stroke:none;" d="M352.333 244.667L352.667 245.333L352.333 244.667z"/>
<path style="fill:#7f7d7e; stroke:none;" d="M358 244L358 245L362 245L358 244z"/>
<path style="fill:#c2c2c2; stroke:none;" d="M365 244L365 251L367 251L367 244L365 244z"/>
<path style="fill:#9c9c9c; stroke:none;" d="M367.333 244.667L367.667 245.333L367.333 244.667z"/>
<path style="fill:#3f3f3f; stroke:none;" d="M368 244C367.076 248.303 367.237 251.173 372 252L372 251L369 251L368 244z"/>
<path style="fill:#b9b7b8; stroke:none;" d="M383 252L380 250L380 246L384 248C379.869 240.602 373.456 251.239 383 252z"/>
<path style="fill:#b9b3b3; stroke:none;" d="M144 245L144 251L146 251L146 245L144 245z"/>
<path style="fill:#b1aaa6; stroke:none;" d="M147 245L151 249L149 251L149 252C152.314 250.899 153.101 249.052 150 247L150 246L153 246L147 245z"/>
<path style="fill:#bdbdbd; stroke:none;" d="M163 245C163.252 252.671 168.748 252.671 169 245L163 245z"/>
<path style="fill:#c5c3c4; stroke:none;" d="M171 251L173 251L173 246L176 247L175 251L177 245C172.635 245.34 171.34 246.635 171 251z"/>
<path style="fill:#b6b4b5; stroke:none;" d="M181 246L183 248L181 248L184 252L185 252L185 245L181 246z"/>
<path style="fill:#4b494a; stroke:none;" d="M186 245L185 252L189 252L189 251L186 245z"/>
<path style="fill:#d9d7d8; stroke:none;" d="M187 245L187 251L188 251L187 245z"/>
<path style="fill:#767475; stroke:none;" d="M190 245L190 252L193 252L193 247L192 247L192 251L191 251L190 245z"/>
<path style="fill:#bcbabb; stroke:none;" d="M191 245L191 251L192 251L195 246L195 252L197 252L197 245L191 245z"/>
<path style="fill:#514f50; stroke:none;" d="M197 245L197 251L198 251L199 245L197 245z"/>
<path style="fill:#adabac; stroke:none;" d="M199 245L199 254L205 254L205 245L199 245z"/>
<path style="fill:#c0bebf; stroke:none;" d="M216.614 246.046C213.609 248.373 217.306 253.354 220.407 250.954C223.526 248.539 219.767 243.606 216.614 246.046z"/>
<path style="fill:#d5d3d4; stroke:none;" d="M224 245L224 251L225 251L228 246L224 245z"/>
<path style="fill:#282627; stroke:none;" d="M239 245L240 252L241 252L239 245z"/>
<path style="fill:#bbb9ba; stroke:none;" d="M241 245L241 251L243 251L243 245L241 245z"/>
<path style="fill:#444243; stroke:none;" d="M243 245L243 252L248 249L243 245z"/>
<path style="fill:#afadae; stroke:none;" d="M245 245L248 249L245 252C248.41 251.737 249.901 251.321 251 248L247 247L247 246L250 246L245 245z"/>
<path style="fill:#393738; stroke:none;" d="M255 245L255 251L256 251L255 245z"/>
<path style="fill:#6c6a6b; stroke:none;" d="M261 245L258 246L258 247C260.221 247.357 262.002 247.583 261 245z"/>
<path style="fill:#bebcbd; stroke:none;" d="M264 245C264.252 252.671 269.748 252.671 270 245L264 245z"/>
<path style="fill:#5a5859; stroke:none;" d="M270 245C270.12 248.692 270.313 250.777 274 252L274 251L272 245L270 245z"/>
<path style="fill:#afadae; stroke:none;" d="M272 245L272 251L274 251L274 246L277 251L278 251L278 245L272 245z"/>
<path style="fill:#6b696a; stroke:none;" d="M278 245L278 251L277 251L277 247L276 247L276 252L279 252L278 245z"/>
<path style="fill:#dcdadb; stroke:none;" d="M288 245L289 251L292 249L296 251L297 245L292 245L290 248L288 245z"/>
<path style="fill:#a19fa0; stroke:none;" d="M293.333 245.667L293.667 246.333L293.333 245.667z"/>
<path style="fill:#c1bfc0; stroke:none;" d="M307 245C307.252 252.671 312.748 252.671 313 245L307 245z"/>
<path style="fill:#413f40; stroke:none;" d="M315 245L315 246L317 248L318 248L315 245z"/>
<path style="fill:#b3b1b2; stroke:none;" d="M318 245L324 251L318 245z"/>
<path style="fill:#8d8b8c; stroke:none;" d="M329 245L331 252L329 245z"/>
<path style="fill:#c4c2c3; stroke:none;" d="M330 245L330 251L331 251C332.212 247.094 334.093 246.798 338 247L338 251L339 251L339 245L330 245z"/>
<path style="fill:#d3d1d2; stroke:none;" d="M341 245L342 254C346.023 252.824 346.498 248.831 347 245L345 248L344 248L341 245z"/>
<path style="fill:#323031; stroke:none;" d="M356 245L356 251L357 251L358 245L356 245z"/>
<path style="fill:#d4d4d4; stroke:none;" d="M358 245L358 246L361 246L361 251L363 251L363 245L358 245z"/>
<path style="fill:#4b4b4b; stroke:none;" d="M363 245L363 252L364 252L363 245z"/>
<path style="fill:#403e3f; stroke:none;" d="M383 245L383 251C385.231 249.053 385.231 246.947 383 245z"/>
<path style="fill:#a6a4a5; stroke:none;" d="M385 245L387 252L389 246L385 245z"/>
<path style="fill:#756f69; stroke:none;" d="M150 246L150 247L153 248L150 246z"/>
<path style="fill:#9d9e98; stroke:none;" d="M162 246L162 250L163 250L162 246z"/>
<path style="fill:#6d6d6c; stroke:none;" d="M165.667 246.333L166.333 246.667L165.667 246.333z"/>
<path style="fill:#4e4c4d; stroke:none;" d="M169 246L170 250L171 250L169 246z"/>
<path style="fill:#2b292a; stroke:none;" d="M173 246L173 250L176 249L176 247L175 246L173 246z"/>
<path style="fill:#9d9b9c; stroke:none;" d="M177 246L177 250L178 250L177 246z"/>
<path style="fill:#5a5859; stroke:none;" d="M178 246L178 250L179 250L178 246z"/>
<path style="fill:#6c6a6b; stroke:none;" d="M193.667 246.333L194.333 246.667L193.667 246.333z"/>
<path style="fill:#615f60; stroke:none;" d="M201.667 246.333L202.333 246.667L201.667 246.333z"/>
<path style="fill:#a9a7a8; stroke:none;" d="M211 246L213 252L211 246z"/>
<path style="fill:#7a7879; stroke:none;" d="M218.667 246.333L219.333 246.667L218.667 246.333z"/>
<path style="fill:#494748; stroke:none;" d="M226.667 246.333L227.333 246.667L226.667 246.333z"/>
<path style="fill:#615f60; stroke:none;" d="M235.667 246.333L236.333 246.667L235.667 246.333z"/>
<path style="fill:#4f4d4e; stroke:none;" d="M239 246L239 252L240 252L239 246z"/>
<path style="fill:#706e6f; stroke:none;" d="M247 246L247 247L250 248L247 246z"/>
<path style="fill:#7a7879; stroke:none;" d="M263 246L263 250L264 250L263 246z"/>
<path style="fill:#5d5b5c; stroke:none;" d="M266.667 246.333L267.333 246.667L266.667 246.333z"/>
<path style="fill:#7f7d7e; stroke:none;" d="M301.667 246.333L302.333 246.667L301.667 246.333z"/>
<path style="fill:#646263; stroke:none;" d="M309.667 246.333L310.333 246.667L309.667 246.333z"/>
<path style="fill:#878586; stroke:none;" d="M313 246L313 250L314 250L313 246z"/>
<path style="fill:#747273; stroke:none;" d="M333 246L333 251L334 251L333 246z"/>
<path style="fill:#f1eff0; stroke:none;" d="M334 246L334 251L335 251L334 246z"/>
<path style="fill:#969495; stroke:none;" d="M339 246L339 251L340 251L339 246z"/>
<path style="fill:#525051; stroke:none;" d="M352 246L352 252L356 252L356 247L355 247L355 251L353 251L352 246z"/>
<path style="fill:#8a8a8a; stroke:none;" d="M358 246L357 251L363 252L363 251L361 246L358 246z"/>
<path style="fill:#696969; stroke:none;" d="M372.667 246.333L373.333 246.667L372.667 246.333z"/>
<path style="fill:#4a4a4a; stroke:none;" d="M376 246L378 251L376 246z"/>
<path style="fill:#858384; stroke:none;" d="M380 246L383 250L380 246z"/>
<path style="fill:#cdcbcc; stroke:none;" d="M386 246L386 251L387 251L386 246z"/>
<path style="fill:#575556; stroke:none;" d="M392 246L392 250L393 250L392 246z"/>
<path style="fill:#676965; stroke:none;" d="M164.333 247.667L164.667 248.333L164.333 247.667z"/>
<path style="fill:#222222; stroke:none;" d="M165 247L165 249L167 249L167 247L165 247z"/>
<path style="fill:#7d7d7d; stroke:none;" d="M167.333 247.667L167.667 248.333L167.333 247.667z"/>
<path style="fill:#828282; stroke:none;" d="M169 247L169 250L170 250L169 247z"/>
<path style="fill:#353334; stroke:none;" d="M194 247L194 251L195 251L194 247z"/>
<path style="fill:#898788; stroke:none;" d="M200.333 247.667L200.667 248.333L200.333 247.667z"/>
<path style="fill:#222021; stroke:none;" d="M201 247L201 249L203 249L203 247L201 247z"/>
<path style="fill:#333232; stroke:none;" d="M217 247L217 250L220 250L220 247L217 247z"/>
<path style="fill:#929091; stroke:none;" d="M234 247L234 251L235 251L234 247z"/>
<path style="fill:#282627; stroke:none;" d="M235 247L235 251L237 251L237 247L235 247z"/>
<path style="fill:#858384; stroke:none;" d="M237 247L239 252L237 247z"/>
<path style="fill:#706e6f; stroke:none;" d="M265.333 247.667L265.667 248.333L265.333 247.667z"/>
<path style="fill:#110f10; stroke:none;" d="M266 247L266 249L268 249L268 247L266 247z"/>
<path style="fill:#7a7879; stroke:none;" d="M268.333 247.667L268.667 248.333L268.333 247.667z"/>
<path style="fill:#605e5f; stroke:none;" d="M300 247L298 251L298 252C301.012 251.354 301.498 249.613 300 247z"/>
<path style="fill:#4b494a; stroke:none;" d="M302 247L302 251L303 251L302 247z"/>
<path style="fill:#8d8b8c; stroke:none;" d="M306 247L306 250L307 250L306 247z"/>
<path style="fill:#727071; stroke:none;" d="M308.333 247.667L308.667 248.333L308.333 247.667z"/>
<path style="fill:#181617; stroke:none;" d="M309 247L309 249L311 249L311 247L309 247z"/>
<path style="fill:#817f80; stroke:none;" d="M311.333 247.667L311.667 248.333L311.333 247.667z"/>
<path style="fill:#605e5f; stroke:none;" d="M331 247L331 252L332 252L331 247z"/>
<path style="fill:#848283; stroke:none;" d="M335 247L335 251L336 251L335 247z"/>
<path style="fill:#5f5d5e; stroke:none;" d="M337 247C337.064 249.993 336.946 251.346 340 252L340 251L337 247z"/>
<path style="fill:#747474; stroke:none;" d="M371 247L371 251L372 251L371 247z"/>
<path style="fill:#313131; stroke:none;" d="M373 247L373 251L374 251L373 247z"/>
<path style="fill:#8f8b87; stroke:none;" d="M148 248L148 252L151 251L151 249L148 248z"/>
<path style="fill:#807972; stroke:none;" d="M153 248L153 251L154 251L153 248z"/>
<path style="fill:#8e8c8d; stroke:none;" d="M256 248L256 252L261 252L256 248z"/>
<path style="fill:#3e3c3d; stroke:none;" d="M262 248L264 251L262 248z"/>
<path style="fill:#858384; stroke:none;" d="M318 248L318 252L323 252L318 248z"/>
<path style="fill:#504e4f; stroke:none;" d="M346.333 248.667L346.667 249.333L346.333 248.667z"/>
<path style="fill:#868485; stroke:none;" d="M391 248L393 252L391 248z"/>
<path style="fill:#5a5a5a; stroke:none;" d="M165.667 249.333L166.333 249.667L165.667 249.333z"/>
<path style="fill:#666465; stroke:none;" d="M201.667 249.333L202.333 249.667L201.667 249.333z"/>
<path style="fill:#454344; stroke:none;" d="M266.667 249.333L267.333 249.667L266.667 249.333z"/>
<path style="fill:#585657; stroke:none;" d="M280 249L282 254L282 249L280 249z"/>
<path style="fill:#565455; stroke:none;" d="M288.333 249.667L288.667 250.333L288.333 249.667z"/>
<path style="fill:#3b393a; stroke:none;" d="M292 249L291 252L292 249z"/>
<path style="fill:#4d4b4c; stroke:none;" d="M309.667 249.333L310.333 249.667L309.667 249.333z"/>
<path style="fill:#a09e9f; stroke:none;" d="M172 251L172 252L176 252L172 251z"/>
<path style="fill:#bab8b9; stroke:none;" d="M281 250L281 253L282 253L281 250z"/>
<path style="fill:#9d9d9d; stroke:none;" d="M367 250L365 251L365 252L367 250z"/>
<path style="fill:#7b7675; stroke:none;" d="M144.667 251.333L145.333 251.667L144.667 251.333z"/>
<path style="fill:#6c6e6d; stroke:none;" d="M159.667 251.333L160.333 251.667L159.667 251.333z"/>
<path style="fill:#6e6c6d; stroke:none;" d="M241.667 251.333L242.333 251.667L241.667 251.333z"/>
<path style="fill:#7e7c7d; stroke:none;" d="M289.667 251.333L290.333 251.667L289.667 251.333z"/>
<path style="fill:#8a8889; stroke:none;" d="M293.667 251.333L294.333 251.667L293.667 251.333z"/>
<path style="fill:#6a6869; stroke:none;" d="M303.667 251.333L304.333 251.667L303.667 251.333z"/>
<path style="fill:#424041; stroke:none;" d="M345.333 251.667L345.667 252.333L345.333 251.667z"/>
<path style="fill:#7d7d7d; stroke:none;" d="M374.667 251.333L375.333 251.667L374.667 251.333z"/>
<path style="fill:#5e5c5d; stroke:none;" d="M341 253L344 255L344 254L341 253z"/>
<path style="fill:#868485; stroke:none;" d="M200 254L200 255L204 255L200 254z"/>
</svg>
