<?xml version="1.0" standalone="yes"?>
<svg width="616" height="345">
<path style="fill:#f7f7f7; stroke:none;" d="M0 0L0 94C24.5495 94 42.3784 77.1964 66 74.2863C74.9888 73.1789 88.2126 72.2597 96.9992 74.5579C107.869 77.4008 112.883 83 125 83L125 80L156 71L156 78L147 77L148 80C144.172 80.4306 142.19 81.2288 141 85L137 83L135 91L131 90L131 94L134 94L134 100C139.189 98.3134 153.103 86.1705 154 81L158 81C158 88.2818 154.334 105.247 164 106L164 94L182 80L183 101L184 101C186.751 93.7552 190.149 90.5702 198 91C197.057 102.938 190.057 107.129 179 110L179 116C185.182 114.953 189.142 112.911 194 118L196 118C201.746 107.741 199 92.4751 199 81L199 0L0 0z"/>
<path style="fill:#494949; stroke:none;" d="M199 0L199 118L200 118L200 36L199 0z"/>
<path style="fill:#121212; stroke:none;" d="M200 0L199.91 154L199.985 185L198.883 197.682L192 200C192 201.566 192.505 212.824 188.544 210.079C186.355 208.561 186.439 203.367 186.155 201C185.06 191.883 181.08 182.892 181 174C175.804 175.827 176.993 180.898 178.294 185.285C180.725 193.485 183.203 204.392 181.853 212.961C181.169 217.302 177.048 220.251 175 224L169 220L168 225C160.567 220.91 152.137 221.244 151 211C138.838 205.691 136.963 197.198 136 185L134 185L134 189L129 190L130 203C121.379 200.115 114.176 184.639 113 176L110 176C109.993 167.38 106.46 159.713 107.884 151C109.148 143.266 115.136 133.977 114.357 126.109C114.02 122.702 110.739 122.309 108 122L99.9344 136.039L95 146L96 192L100 192C100.198 201.589 101.028 211.224 105.123 220C109.239 228.819 117.598 238.402 119 248L128 253L116 253C115.081 249.256 113.856 247.653 110 247L109 239C101.898 242.048 103.326 246.024 106 252L102 252L96 245L95 252L96 261L111 261L111 263L95 264C96.3918 270.539 102.118 271.24 108 272L108 271L106 266L115 264L126 272C124.825 268.605 120.019 264.608 122.466 261.059C124.256 258.462 127.048 257.689 130 258.264C138.628 259.943 148.322 259.848 156.999 257.57C162.446 256.141 164.067 251.922 170 254C171.935 249.929 175.175 248.35 177.756 244.867C184.009 236.432 188.715 224.075 200 221L200 345L206 345L206 256C206 248.946 202.678 230.009 207.603 224.653C211.328 220.603 217.576 222.325 222 223.839C233.448 227.755 244.408 233.153 256 236.657C279.174 243.661 308.907 239 333 239C345.189 239 357.68 240.573 369 235.471C379.154 230.895 390.345 226.508 400.83 222.888C405.01 221.445 409.526 219.836 412.968 223.724C418.37 229.826 415 248.181 415 256L415 345L422 345L422 253L422 231L423.564 222.917L432.595 228.63L453 256L489 260L489 257C502.232 257.045 499.946 262.855 496 272L517 264L512 263L512 260L527 260L525 248L517 252L519 242L513 242L513 246L508 246C505.746 251.629 501.398 252.311 496 254L503 246C507.026 231.066 519.672 219.472 525.105 205C528.554 195.812 527 182.717 527 173C527 166.287 530.006 151.659 522 149L514 122C507.134 123.095 508.246 128.413 509.499 134C512.09 145.55 516 156.081 516 168L513 168C512.253 177.987 501.889 201.398 492 204L492 190L490 192L486 191L486 200C474.212 204.178 473.109 221.546 459 223L454 231L452 225L451 225L451 231L447 226L443 220L427 218C429.097 213.87 427.775 211.972 426 208L430 208L430 201C425.905 201.002 423.864 199.625 422 196C427.174 195.832 430.836 194.107 432.852 188.999C435.87 181.352 435.224 172.025 436.184 164C437.105 156.313 439.914 148.731 440 141L433.045 153.91L424 187L423 187L422 120L422 0L415 0L415 90L402 90L402 97L401 100L395 100C395.116 103.807 395.487 106.158 399 108L399 103L411 109L414 108L415 176L413 176L413 171L409 171C409.879 165.962 409.234 160.36 405 157L408 151L408 150L408 149L403 147L403 153L393 155L389 168C384.444 165.731 379.281 155.439 373.603 161.728C367.131 168.896 377.582 183.215 375.722 192C373.917 200.525 358.011 212.641 351.857 218.7C349.934 220.592 345.786 224.605 342.863 224.578C340.107 224.553 340.143 220.891 340 219C335.758 219.673 331.301 223.034 327.108 220.677C320.795 217.13 320.459 200.043 310.205 202.333C307.944 202.837 306.03 204.94 304 206L304 213L301 212C300.219 222.335 292.103 222.868 284 221L283 233L288 233L288 234L278 234C278.534 227.229 273.534 222.361 267 222C264.784 214.158 253.544 209.167 246 208C244.039 200.23 238.772 195.518 242 187L246 190C244.898 181.03 253.379 176.266 251.721 168.015C250.546 162.165 243.801 159.128 240.333 165.264C238.707 168.14 239.764 171.9 240 175L235 175L235 176L237 183C230.811 179.355 230.465 172.525 230 166L219 162L221 174L212 174C206.502 182.731 208.973 193.228 209 203L206 203L207 106L212 107L214 97C216.993 96.9358 218.346 97.0539 219 94L217 96L216 96L207 92L206 0L200 0z"/>
<path style="fill:#5e5e5e; stroke:none;" d="M206 0L208 88L221 90L221 93L230 97L229 91L232 91L227 108L231 104L235 104L235 99L238 99C237.244 108.575 236.96 113.511 227 116L223 110L223 104C217.992 104.87 218.081 108.63 217 113L207 112L208 133L209 133C212.476 127.483 212.479 125.848 210 120L216 121L216 114L225 115L224 118C227.945 118.298 231.521 119.078 234.891 116.424C241.589 111.147 245.101 97.3268 235 94C238.332 88.6993 245.965 89.5634 247 96C254.434 94.765 257.342 82.4552 250.682 78.0278C246.685 75.3705 242.792 78.4589 238.91 79.1705C235.329 79.8271 233.186 78.6416 231 82L221 78L221 82L219 82L219 78L214 78L216 70L210 72C205.873 56.0427 207 39.6559 207 23C207 16.049 208.701 6.43616 206 0z"/>
<path style="fill:#d6d6d6; stroke:none;" d="M207 0L207 62L208 62L208 20L207 0z"/>
<path style="fill:#fafafa; stroke:none;" d="M208 0L208 62C230.719 62 251.757 67.7104 274 69.8287C286.99 71.0658 299.205 65.1201 312 64.7647C323.427 64.4472 335.233 69.8815 347 69.8202C369.153 69.7048 391.235 56.58 414 62L414 0L208 0z"/>
<path style="fill:#cacaca; stroke:none;" d="M414 0L414 62C391.977 55.4904 368.617 69.3647 347 69.6566C335.299 69.8147 324.367 64.932 313 64.4745C300.614 63.976 288.565 70.2016 276 69.8712C270.092 69.7158 264.769 66.9487 259 66.1805C241.954 63.9106 225.207 62 208 62L208 66L229.17 70.7369L258 72L258 73L254 75L254 76L263.91 74.4869L276 78L279 88L276 89L278 93L276 93L277 103L274 103L265 89L258 110L249 109L251 114L256 113L256 117L264 120C263.7 116.136 262.911 114.652 259 114L259 112C262.814 111.339 263.57 109.741 264 106L273 106L282 106L284 112L288 111L285 123L289 124L289 118C298.619 119.613 297.506 109.412 297 103L302 103L301 100L297 98L306 99C306.755 108.575 302.088 118.993 312 124C313.508 119.768 313.568 117.747 311 114L315 107L316 107L317 122L331 123C329.982 128.38 329.077 133.14 324 136C324.637 144.725 335.009 138.075 330 137C334.989 127.22 335.607 121.346 334 111L339 112L341 106L349 107L350 102L356 103L357 112L361 112L360 118L373 115L375 107L382 108L376 102C375.183 103.466 374.422 105.032 373.426 106.39C364.848 118.096 361.249 92.2386 355 90L349 103C342.471 101.016 342.588 83.3761 347.343 78.8951C353.787 72.8232 361.309 75.994 369 76L369 74L365 74L365 72C377.008 72 388.196 70.823 400 68.8557C403.443 68.282 410.396 68.5155 412.968 66.0918C416.575 62.6913 415 54.4714 415 50C415 35.9617 419.406 12.883 414 0z"/>
<path style="fill:#9e9e9e; stroke:none;" d="M422 0L422 62L423 62L423 20L422 0z"/>
<path style="fill:#f8f8f8; stroke:none;" d="M423 0L423 84C423 91.7162 419.859 108.899 425.299 115.102C427.22 117.292 439.284 114.84 443 115C441.102 106.103 432.517 109.406 427.318 104.596C423.285 100.866 425 91.9739 425 87L427 87L427 91C434.315 92.9925 438.523 99.9606 440 107L462 113L462 107L466 107L465 81L480 94L486 96L487 96L488 96C501.149 81.595 473.657 80.4537 469 72C481.552 72.575 492.204 83.257 505 82.9846C512.986 82.8145 517.68 76.8932 525 74.7894C534.3 72.1162 550.381 72.5852 559.911 74.2593C579.73 77.7411 595.113 92 616 92L616 0L423 0z"/>
<path style="fill:#bcbcbc; stroke:none;" d="M14 17L14 18L27 18L14 17z"/>
<path style="fill:#adadad; stroke:none;" d="M62 17L62 18L70 18L62 17z"/>
<path style="fill:#7f7f7f; stroke:none;" d="M76 22L85 18C80.7892 16.3034 77.938 18.1576 76 22z"/>
<path style="fill:#b2b2b2; stroke:none;" d="M93 17L93 18L102 18L93 17z"/>
<path style="fill:#949494; stroke:none;" d="M122 17L122 32L123 32L123 18L131 18L122 17z"/>
<path style="fill:#a9a9a9; stroke:none;" d="M142 17L142 18L146 18L142 17z"/>
<path style="fill:#bcbcbc; stroke:none;" d="M231 17L231 18L244 18L231 17z"/>
<path style="fill:#b3b3b3; stroke:none;" d="M246 17L246 18L258 18L246 17z"/>
<path style="fill:#aeaeae; stroke:none;" d="M279 17L279 18L288 18L279 17z"/>
<path style="fill:#525252; stroke:none;" d="M294 21L302 18C298.484 16.6714 295.954 17.904 294 21z"/>
<path style="fill:#b6b6b6; stroke:none;" d="M311 17L311 18L318 18L311 17z"/>
<path style="fill:#808080; stroke:none;" d="M328 21L329 21L333 18C330.012 17.0168 328.937 18.1499 328 21z"/>
<path style="fill:#aeaeae; stroke:none;" d="M340 17L340 18L347 18L340 17z"/>
<path style="fill:#b0b0b0; stroke:none;" d="M359 17L359 18L363 18L359 17z"/>
<path style="fill:#959595; stroke:none;" d="M378 17L378 18L382 18L378 17z"/>
<path style="fill:#b2b2b2; stroke:none;" d="M443 17L443 18L456 18L443 17z"/>
<path style="fill:#bfbfbf; stroke:none;" d="M458 17L458 18L469 18L458 17z"/>
<path style="fill:#b4b4b4; stroke:none;" d="M483 17L483 18L487 18L483 17z"/>
<path style="fill:#bdbdbd; stroke:none;" d="M490 17L490 18L499 18L490 17z"/>
<path style="fill:#808080; stroke:none;" d="M507 17L507 18L512 18L507 17z"/>
<path style="fill:#bababa; stroke:none;" d="M521 17L521 18L531 18L521 17z"/>
<path style="fill:#a9a9a9; stroke:none;" d="M540 17L540 18L544 18L540 17z"/>
<path style="fill:#b1b1b1; stroke:none;" d="M550 19L558 18L550 19M569 17L569 18L574 18L569 17z"/>
<path style="fill:#848484; stroke:none;" d="M588 17L588 18L593 18L588 17z"/>
<path style="fill:#323232; stroke:none;" d="M14 18L14 21L19 21C19 24.9948 17.2738 31.9872 22 33L22 32L20 20L15 20L15 19L27 19L14 18z"/>
<path style="fill:#6c6c6c; stroke:none;" d="M29 18L29 33L40 33L40 32L30 32L29 18z"/>
<path style="fill:#0e0e0e; stroke:none;" d="M30 18L30 32L40 32L40 30L33 30L33 26L39 26L39 24L33 24L33 21L40 21L40 18L30 18z"/>
<path style="fill:#121212; stroke:none;" d="M43 18L43 33L46 33L46 24L50 29L52 29L55 22L56 22L56 32L58 32L58 19L52 24L43 18z"/>
<path style="fill:#5c5c5c; stroke:none;" d="M45 18L45 19L47 21L48 21L45 18z"/>
<path style="fill:#3d3d3d; stroke:none;" d="M54 20L58 19L56 32L56 33C61.0625 31.9152 59 22.3065 59 18L54 20z"/>
<path style="fill:#949494; stroke:none;" d="M61 18L61 33L66 33L66 28L65 28L65 32L62 32L61 18z"/>
<path style="fill:#040404; stroke:none;" d="M62 18L62 32L65 32L65 27C77.2054 26.8546 71.6754 18.0277 62 18z"/>
<path style="fill:#a2a2a2; stroke:none;" d="M70.6667 18.3333L71.3333 18.6667L70.6667 18.3333z"/>
<path style="fill:#050505; stroke:none;" d="M81.0193 18.7863C72.1473 21.7499 77.2109 34.7751 85.9414 31.2538C93.5567 28.1824 88.5814 16.2601 81.0193 18.7863z"/>
<path style="fill:#787878; stroke:none;" d="M85 18L85 19L90 22L85 18z"/>
<path style="fill:#bababa; stroke:none;" d="M92 18L92 33L93 33L92 18z"/>
<path style="fill:#3a3a3a; stroke:none;" d="M93 18C93 22.3065 90.9375 31.9152 96 33L96 32L94 19L102 19L93 18z"/>
<path style="fill:#bfbfbf; stroke:none;" d="M110 18L110 21L111 21L112 18L110 18z"/>
<path style="fill:#0c0c0c; stroke:none;" d="M107 32L120 33L116 18C109.78 19.0146 107.754 26.3323 107 32z"/>
<path style="fill:#070707; stroke:none;" d="M123 18L123 33C138.1 32.865 138.02 18.0431 123 18z"/>
<path style="fill:#3b3b3b; stroke:none;" d="M141 20L147 21C145.307 18.3802 143.24 17.4735 141 20z"/>
<path style="fill:#727272; stroke:none;" d="M157 22L161 22L161 21L158 20L164 19C160.501 17.5833 158.193 18.4041 157 22z"/>
<path style="fill:#a8a8a8; stroke:none;" d="M164 18L164 33L165 33L164 18z"/>
<path style="fill:#363636; stroke:none;" d="M231 18L231 21L236 21L236 20L233 20L233 19L244 20L231 18z"/>
<path style="fill:#5c5c5c; stroke:none;" d="M246 18L246 33L257 33L257 32L247 32L247 19L256 19L256 20L250 20L250 21L258 21L258 18L246 18z"/>
<path style="fill:#6b6b6b; stroke:none;" d="M260 18L260 33L264 33L265 23L263 32L261 32C261 27.4304 259.776 21.7385 264 19L260 18z"/>
<path style="fill:#080808; stroke:none;" d="M269 24L268 24L261 19L261 32L263 32L263 23L268 29L273 24L273 33L276 33L276 18C272.002 18.6499 270.645 20.3796 269 24z"/>
<path style="fill:#8c8c8c; stroke:none;" d="M276 18L276 33L277 33L276 18z"/>
<path style="fill:#585858; stroke:none;" d="M279 18L279 33L283 33L283 28L282 28L282 32L280 32L280 19L284 19L279 18z"/>
<path style="fill:#000000; stroke:none;" d="M280 19L280 32L282 32L282 28C294.022 27.7086 291.547 17.5739 280 19z"/>
<path style="fill:#090909; stroke:none;" d="M298.015 18.8233C289.705 21.8492 293.446 35.5692 301.957 32.2531C310.006 29.1167 307.046 15.5352 298.015 18.8233z"/>
<path style="fill:#3a3a3a; stroke:none;" d="M310 18L310 32L311 32L311 19L320 19L310 18z"/>
<path style="fill:#050505; stroke:none;" d="M325 32C330.081 29.5653 331.919 29.5653 337 32L333 18C327.164 19.8016 325.679 26.4332 325 32z"/>
<path style="fill:#acacac; stroke:none;" d="M339 18L338 33C341.355 30.0687 340.628 21.8801 339 18z"/>
<path style="fill:#0b0b0b; stroke:none;" d="M340 18L340 32C342.884 31.9997 346.818 32.6234 349.427 31.142C360.077 25.0957 345.741 18.0165 340 18z"/>
<path style="fill:#030303; stroke:none;" d="M354 33L357 29L367 32C366.162 28.9296 365.087 20.9062 362.419 19.0864C357.346 15.6269 354.479 30.1819 354 33z"/>
<path style="fill:#0e0e0e; stroke:none;" d="M375 22L382 20L375 32L385 32L385 30L380 30L385 19C380.669 18.1992 376.626 17.1008 375 22z"/>
<path style="fill:#828282; stroke:none;" d="M382.667 18.3333L383.333 18.6667L382.667 18.3333z"/>
<path style="fill:#3c3c3c; stroke:none;" d="M443 18L443 21L447 21L447 20L444 20L444 19L455 19L455 20L451 20L451 21L456 21L456 18L443 18z"/>
<path style="fill:#060606; stroke:none;" d="M458 18L458 32L468 32L468 30L461 30L468 26L468 24L461 24L461 21L469 21L469 18L458 18z"/>
<path style="fill:#0b0b0b; stroke:none;" d="M472 18L472 32L474 32L474 24L478 29L480 29L483 23L484 23L484 32L487 32L487 18L482 18L480 24L472 18z"/>
<path style="fill:#080808; stroke:none;" d="M490 18L490 33L493 33L493 27C496.559 26.9578 505.381 23.9311 499.397 19.179C497.061 17.3245 492.78 18.0018 490 18z"/>
<path style="fill:#030303; stroke:none;" d="M506.318 19.0285C499.288 23.674 506.557 35.9126 514.656 30.821C522.835 25.6785 513.827 14.067 506.318 19.0285z"/>
<path style="fill:#787878; stroke:none;" d="M513.667 18.3333L514.333 18.6667L513.667 18.3333z"/>
<path style="fill:#929292; stroke:none;" d="M520 18L520 33L524 33L524 32L521 32L520 18z"/>
<path style="fill:#070707; stroke:none;" d="M521 18L521 32L524 32L524 27L532 32C530.003 22.1993 533.56 18.0014 521 18z"/>
<path style="fill:#090909; stroke:none;" d="M539 18L535 32L538 29L548 32C547.099 25.9864 545.921 18.5392 539 18z"/>
<path style="fill:#3f3f3f; stroke:none;" d="M551 18L551 19L562 21C559.418 17.3456 555.137 18.0027 551 18z"/>
<path style="fill:#090909; stroke:none;" d="M569 18L565 32L578 32L574 18L569 18z"/>
<path style="fill:#000000; stroke:none;" d="M586 21C589.837 20.6776 593.966 21.0338 590 25L593 26L593 30L585 29C588.651 34.0627 599.312 30.6545 594 26C595.373 19.9881 590.171 14.5721 586 21M15 19L15 20L20 20L20 32L22 32L22 20L27 20L15 19z"/>
<path style="fill:#a4a4a4; stroke:none;" d="M48 19L49 23L50 23L48 19z"/>
<path style="fill:#b3b3b3; stroke:none;" d="M53 19L52 22L53 19z"/>
<path style="fill:#000000; stroke:none;" d="M94 19L94 32L96 32L100 27L104 32L104 19L94 19z"/>
<path style="fill:#050505; stroke:none;" d="M138 32C143.166 29.5419 144.775 30.5199 150 32C149.248 18.1827 138.339 17.5253 138 32z"/>
<path style="fill:#010101; stroke:none;" d="M158 20L158 21L162 21L162 32L163 32L163 19L158 20z"/>
<path style="fill:#303030; stroke:none;" d="M163 19L163 32L162 32L162 21L161 21L161 33L164 33L163 19z"/>
<path style="fill:#020202; stroke:none;" d="M233 19L233 20C237.729 22.6074 236.999 27.116 237 32L239 32L239 20L243 20L233 19z"/>
<path style="fill:#101010; stroke:none;" d="M247 19L247 32L257 32L257 30L250 30L250 26L257 26L257 24L250 24L250 20L256 20L247 19z"/>
<path style="fill:#0b0b0b; stroke:none;" d="M311 19L311 32L313 32L313 28L322 33C319.22 23.1807 323.876 19.0014 311 19z"/>
<path style="fill:#090909; stroke:none;" d="M444 19L444 20C448.982 22.7469 448 27.9081 448 33L451 33L451 20L455 20L444 19z"/>
<path style="fill:#909090; stroke:none;" d="M476 19L478 22L476 19z"/>
<path style="fill:#5c5c5c; stroke:none;" d="M550 19L550 33L560 33L560 32L551 32L550 19z"/>
<path style="fill:#030303; stroke:none;" d="M551 19L551 32C565.7 31.9886 565.925 19.0428 551 19z"/>
<path style="fill:#747474; stroke:none;" d="M595 19L595 24L596 24L595 19z"/>
<path style="fill:#8c8c8c; stroke:none;" d="M22 20L22 33L23 33L23 21L27 21L22 20z"/>
<path style="fill:#5d5d5d; stroke:none;" d="M65 20L65 21L69 21L65 20z"/>
<path style="fill:#505050; stroke:none;" d="M73 20L73 25L74 25L73 20z"/>
<path style="fill:#808080; stroke:none;" d="M81 20L81 21L85 21L81 20z"/>
<path style="fill:#666666; stroke:none;" d="M97 20L97 21L101 21L97 20z"/>
<path style="fill:#515151; stroke:none;" d="M104 20L104 25L105 25L104 20z"/>
<path style="fill:#656565; stroke:none;" d="M126 20L126 21L130 21L126 20z"/>
<path style="fill:#6b6b6b; stroke:none;" d="M134 20L135 28L136 28L134 20z"/>
<path style="fill:#848484; stroke:none;" d="M239 20L237 32L237 33C241.726 31.9872 240 24.9949 240 21L244 21L239 20z"/>
<path style="fill:#656565; stroke:none;" d="M283 20L283 21L287 21L283 20z"/>
<path style="fill:#868686; stroke:none;" d="M291 20L292 28L293 28L291 20z"/>
<path style="fill:#858585; stroke:none;" d="M298 20L298 21L302 21L298 20z"/>
<path style="fill:#777777; stroke:none;" d="M306.333 20.6667L306.667 21.3333L306.333 20.6667z"/>
<path style="fill:#666666; stroke:none;" d="M314 20L314 21L318 21L314 20z"/>
<path style="fill:#5e5e5e; stroke:none;" d="M343 20L343 21L347 21L343 20z"/>
<path style="fill:#545454; stroke:none;" d="M352 20L352 28L353 28L352 20z"/>
<path style="fill:#9a9a9a; stroke:none;" d="M374 20L378 23L378 22L374 20z"/>
<path style="fill:#757575; stroke:none;" d="M378 20L378 21L382 21L378 20z"/>
<path style="fill:#a1a1a1; stroke:none;" d="M385 20L385 24L386 24L385 20z"/>
<path style="fill:#656565; stroke:none;" d="M494 20L494 21L498 21L494 20z"/>
<path style="fill:#575757; stroke:none;" d="M501 20L501 25L502 25L501 20z"/>
<path style="fill:#7b7b7b; stroke:none;" d="M508 22L512 21L508 22z"/>
<path style="fill:#626262; stroke:none;" d="M532 20L532 24L533 24L532 20z"/>
<path style="fill:#363636; stroke:none;" d="M553 20L553 30L554 30L554 21L558 21L553 20z"/>
<path style="fill:#777777; stroke:none;" d="M585 20L589 22L589 21L585 20z"/>
<path style="fill:#b5b5b5; stroke:none;" d="M15 21L15 22L18 22L18 33L19 33L19 21L15 21z"/>
<path style="fill:#c1c1c1; stroke:none;" d="M65 21L65 25L70 25L70 21L65 21z"/>
<path style="fill:#f6f6f6; stroke:none;" d="M80.6034 22.0324C77.2058 24.6707 80.3732 31.7092 84.6975 28.9529C89.2226 26.0687 85.0903 18.5483 80.6034 22.0324z"/>
<path style="fill:#8b8b8b; stroke:none;" d="M96 21L96 25L101 25L101 24L96 21z"/>
<path style="fill:#fefefe; stroke:none;" d="M97 21L97 24L101 24L101 21L97 21z"/>
<path style="fill:#838383; stroke:none;" d="M101 21L101 24L102 24L101 21z"/>
<path style="fill:#b1b1b1; stroke:none;" d="M126 21L126 30L130 30L130 29L127 29L126 21z"/>
<path style="fill:#fcfcfc; stroke:none;" d="M127 21L127 29C133.101 27.9819 132.836 22.2735 127 21z"/>
<path style="fill:#bbbbbb; stroke:none;" d="M235 21C235 25.8447 233.535 32.1862 239 34L239 33L235 21z"/>
<path style="fill:#3b3b3b; stroke:none;" d="M236 21L236 32L237 32L236 21z"/>
<path style="fill:#646464; stroke:none;" d="M282 21L282 25L283 25L282 21z"/>
<path style="fill:#efefef; stroke:none;" d="M283 21L283 25L288 24L288 22L283 21z"/>
<path style="fill:#f8f8f8; stroke:none;" d="M297.603 22.0324C293.87 24.9387 298.547 32.0299 302.397 28.3773C305.889 25.0639 301.696 18.8461 297.603 22.0324z"/>
<path style="fill:#adadad; stroke:none;" d="M313 21L313 25C316.41 24.7375 317.901 24.3213 319 21L313 21z"/>
<path style="fill:#b2b2b2; stroke:none;" d="M343 21L343 30L344 30L343 21z"/>
<path style="fill:#f7f7f7; stroke:none;" d="M344 21L344 30C349.246 27.7735 350.637 22.1076 344 21z"/>
<path style="fill:#8f8f8f; stroke:none;" d="M447 21L447 32L448 32L447 21z"/>
<path style="fill:#b2b2b2; stroke:none;" d="M451 21L451 33L452 33C452 28.8076 451.175 24.4796 455 22L451 21z"/>
<path style="fill:#888888; stroke:none;" d="M461 21C461.796 24.7159 464.637 24 468 24L468 23L461 21z"/>
<path style="fill:#989898; stroke:none;" d="M493 21L493 25L494 25L493 21z"/>
<path style="fill:#f2f2f2; stroke:none;" d="M494 21L494 25L498 21L494 21z"/>
<path style="fill:#fcfcfc; stroke:none;" d="M509.299 21.8511C505.426 23.3364 507.393 31.0587 511.726 29.1991C515.569 27.5498 513.76 20.1395 509.299 21.8511z"/>
<path style="fill:#767676; stroke:none;" d="M512.667 21.3333L513.333 21.6667L512.667 21.3333z"/>
<path style="fill:#d7d7d7; stroke:none;" d="M524 21L524 25L529 21L524 21z"/>
<path style="fill:#f7f7f7; stroke:none;" d="M554 21L554 30C561.097 28.8681 561.317 21.8423 554 21z"/>
<path style="fill:#868686; stroke:none;" d="M563 21L563 28L564 28L563 21z"/>
<path style="fill:#737373; stroke:none;" d="M592 21L589 23L589 27L592 30L593 30L590 25L592 21z"/>
<path style="fill:#a8a8a8; stroke:none;" d="M55 22L53 27L55 32L56 32L55 22z"/>
<path style="fill:#797979; stroke:none;" d="M75 22L75 28L76 28L75 22z"/>
<path style="fill:#8d8d8d; stroke:none;" d="M109.333 22.6667L109.667 23.3333L109.333 22.6667z"/>
<path style="fill:#fafafa; stroke:none;" d="M113 22L113 26L114 26L113 22z"/>
<path style="fill:#929292; stroke:none;" d="M132 22L132 27L133 27L132 22z"/>
<path style="fill:#a2a2a2; stroke:none;" d="M147 22L149 25L147 22z"/>
<path style="fill:#b3b3b3; stroke:none;" d="M160 22L160 33L161 33L160 22z"/>
<path style="fill:#7a7a7a; stroke:none;" d="M307 22L307 28L308 28L307 22z"/>
<path style="fill:#ffffff; stroke:none;" d="M314 22L314 24L318 24L318 22L314 22z"/>
<path style="fill:#595959; stroke:none;" d="M330 22L329 27L333 27L332 22L330 22z"/>
<path style="fill:#898989; stroke:none;" d="M349 22L349 27L350 27L349 22z"/>
<path style="fill:#7c7c7c; stroke:none;" d="M360 22C358.98 24.8991 358.772 26.3084 362 27L362 26L360 25L360 24L362 24L362 22L360 22z"/>
<path style="fill:#646464; stroke:none;" d="M364 22L364 25L365 25L364 22z"/>
<path style="fill:#5b5b5b; stroke:none;" d="M503 22L503 28L504 28L503 22z"/>
<path style="fill:#787878; stroke:none;" d="M506 22L506 28L507 28L506 22z"/>
<path style="fill:#ababab; stroke:none;" d="M514 22L514 27L515 27L514 22z"/>
<path style="fill:#b6b6b6; stroke:none;" d="M518 22L518 27L519 27L518 22z"/>
<path style="fill:#f8f8f8; stroke:none;" d="M541 22L543 26L541 22z"/>
<path style="fill:#7a7a7a; stroke:none;" d="M545.333 22.6667L545.667 23.3333L545.333 22.6667z"/>
<path style="fill:#aaaaaa; stroke:none;" d="M567 22L566 27L567 27L567 22z"/>
<path style="fill:#696969; stroke:none;" d="M570 22L570 24L572 22L570 22z"/>
<path style="fill:#5d5d5d; stroke:none;" d="M33 23L33 24L39 24L39 26L33 26L33 27L40 27L40 23L33 23z"/>
<path style="fill:#8e8e8e; stroke:none;" d="M50.6667 23.3333L51.3333 23.6667L50.6667 23.3333z"/>
<path style="fill:#999999; stroke:none;" d="M112 23C112.246 26.1989 114.141 28.0847 115 24L114 24L114 26L113 26L112 23z"/>
<path style="fill:#939393; stroke:none;" d="M143 23L142 27L145 27L143 23z"/>
<path style="fill:#444444; stroke:none;" d="M335 23L335 32L335 33C339.905 31.9489 336.986 25.9987 335 23z"/>
<path style="fill:#b0b0b0; stroke:none;" d="M483 23L483 33L487 33L487 32L484 32L483 23z"/>
<path style="fill:#949494; stroke:none;" d="M540 23L543 27L543 26L540 23z"/>
<path style="fill:#535353; stroke:none;" d="M560 23L560 27L561 27L560 23z"/>
<path style="fill:#a5a5a5; stroke:none;" d="M571 23L570 27L573 27L571 23z"/>
<path style="fill:#a7a7a7; stroke:none;" d="M46 24L46 33L47 33L48 24L46 24z"/>
<path style="fill:#797979; stroke:none;" d="M90 24L90 27L91 27L90 24z"/>
<path style="fill:#e1e1e1; stroke:none;" d="M330 24L330 26L332 26L332 24L330 24z"/>
<path style="fill:#dfdfdf; stroke:none;" d="M360 24L360 26L362 26L362 24L360 24z"/>
<path style="fill:#626262; stroke:none;" d="M468 24L462 26L462 27C464.535 26.9897 469.356 27.5981 468 24z"/>
<path style="fill:#a2a2a2; stroke:none;" d="M474 24L472 32L472 33C475.958 32.1519 475.326 27.5645 476 24L474 24z"/>
<path style="fill:#9b9b9b; stroke:none;" d="M365 25L366 30L367 30L365 25z"/>
<path style="fill:#8e8e8e; stroke:none;" d="M536 25L536 28L537 28L536 25z"/>
<path style="fill:#a4a4a4; stroke:none;" d="M48 26L50 29L48 26z"/>
<path style="fill:#6d6d6d; stroke:none;" d="M102 26L102 29L104 29L104 26L102 26z"/>
<path style="fill:#656565; stroke:none;" d="M250 26L250 27L257 27L250 26z"/>
<path style="fill:#898989; stroke:none;" d="M530 26L530 29L531 29L532 26L530 26z"/>
<path style="fill:#a9a9a9; stroke:none;" d="M596 26L596 30L597 30L596 26z"/>
<path style="fill:#4b4b4b; stroke:none;" d="M65 27L65 28L71 28L65 27z"/>
<path style="fill:#606060; stroke:none;" d="M97 27L97 28L100 29L97 27z"/>
<path style="fill:#adadad; stroke:none;" d="M461 27C461.869 31.0534 466.443 30.0435 470 31L461 27z"/>
<path style="fill:#989898; stroke:none;" d="M477.333 27.6667L477.667 28.3333L477.333 27.6667z"/>
<path style="fill:#474747; stroke:none;" d="M493 27L493 28L499 28L493 27z"/>
<path style="fill:#a6a6a6; stroke:none;" d="M524 27L524 32L525 32L527 28L524 27z"/>
<path style="fill:#8b8b8b; stroke:none;" d="M76.3333 28.6667L76.6667 29.3333L76.3333 28.6667z"/>
<path style="fill:#787878; stroke:none;" d="M96 28L96 32L97 32L96 28z"/>
<path style="fill:#797979; stroke:none;" d="M119.333 28.6667L119.667 29.3333L119.333 28.6667z"/>
<path style="fill:#8a8a8a; stroke:none;" d="M293 28L295 31L293 28z"/>
<path style="fill:#919191; stroke:none;" d="M493 28L493 32L494 32L493 28M517 28L516 31L517 28z"/>
<path style="fill:#898989; stroke:none;" d="M527.333 28.6667L527.667 29.3333L527.333 28.6667z"/>
<path style="fill:#7e7e7e; stroke:none;" d="M535.333 28.6667L535.667 29.3333L535.333 28.6667z"/>
<path style="fill:#adadad; stroke:none;" d="M33 29L33 30L40 33L41 33L41 29L33 29z"/>
<path style="fill:#979797; stroke:none;" d="M50.6667 29.3333L51.3333 29.6667L50.6667 29.3333z"/>
<path style="fill:#b3b3b3; stroke:none;" d="M89 29L85 32L85 33L89 29z"/>
<path style="fill:#555555; stroke:none;" d="M141 29L141 30L146 30L141 29z"/>
<path style="fill:#9b9b9b; stroke:none;" d="M150 29L148 32L148 33C150.649 32.4324 151.355 31.4122 150 29z"/>
<path style="fill:#a4a4a4; stroke:none;" d="M250 29L250 30L257 32C258.458 28.1313 252.572 29.0017 250 29z"/>
<path style="fill:#545454; stroke:none;" d="M328 29L328 30L334 30L328 29z"/>
<path style="fill:#888888; stroke:none;" d="M345 29L345 30L348 30L345 29z"/>
<path style="fill:#444444; stroke:none;" d="M357 32L358 32L363 30C360.238 28.4085 357.714 28.6685 357 32z"/>
<path style="fill:#5c5c5c; stroke:none;" d="M538 29L538 30L545 30L538 29z"/>
<path style="fill:#929292; stroke:none;" d="M104 30L102 32L102 33L110 33L110 32L104 30z"/>
<path style="fill:#7f7f7f; stroke:none;" d="M120.333 30.6667L120.667 31.3333L120.333 30.6667z"/>
<path style="fill:#525252; stroke:none;" d="M137 30L140 33L140 32L137 30z"/>
<path style="fill:#8a8a8a; stroke:none;" d="M140.333 30.6667L140.667 31.3333L140.333 30.6667z"/>
<path style="fill:#636363; stroke:none;" d="M324 30L327 33L327 32L324 30z"/>
<path style="fill:#747474; stroke:none;" d="M327.333 30.6667L327.667 31.3333L327.333 30.6667z"/>
<path style="fill:#757575; stroke:none;" d="M334.333 30.6667L334.667 31.3333L334.333 30.6667z"/>
<path style="fill:#6b6b6b; stroke:none;" d="M364.333 30.6667L364.667 31.3333L364.333 30.6667z"/>
<path style="fill:#595959; stroke:none;" d="M367 30L365 32L365 33C367.251 32.5268 368.118 32.1397 367 30z"/>
<path style="fill:#646464; stroke:none;" d="M374 30C374.982 34.5809 381.116 33 385 33L385 32L374 30z"/>
<path style="fill:#666666; stroke:none;" d="M468 30L458 32L458 33C460.726 33 469.66 34.4023 468 30z"/>
<path style="fill:#636363; stroke:none;" d="M532 30L529 32L529 33C531.348 32.7058 532.951 32.5066 532 30z"/>
<path style="fill:#626262; stroke:none;" d="M545 30L548 33L548 32L545 30z"/>
<path style="fill:#707070; stroke:none;" d="M564 30L568 33L568 32L564 30z"/>
<path style="fill:#737373; stroke:none;" d="M574 30C574.678 33.1622 577.32 33.9157 579 31L574 30M78 31L78 32L85 33L85 32L78 31z"/>
<path style="fill:#afafaf; stroke:none;" d="M533 31L538 33L538 32L533 31z"/>
<path style="fill:#6d6d6d; stroke:none;" d="M340 32L340 33L347 33L340 32z"/>
<path style="fill:#4e4e4e; stroke:none;" d="M507 32L507 33L513 33L507 32z"/>
<path style="fill:#474747; stroke:none;" d="M587 32L587 33L593 33L587 32z"/>
<path style="fill:#7a7a7a; stroke:none;" d="M207 62L210 72L216 70L214 78L219 78L219 82L221 82L221 78L231 82C233.934 79.0897 247.044 75.5623 250.682 78.6034C256.678 83.6147 253.853 93.9325 247 96C246.677 91.8528 244.146 88.593 241 93L245 92C246.878 101.12 247.357 109.962 258 110L265 89L274 103L277 103L276 93L278 93L279 88L276 78L264.83 74.321L254 76L254 75L258 73L258 72L230.09 70.7369L208 66L207 62z"/>
<path style="fill:#767676; stroke:none;" d="M422 62L422 104C422.011 110.773 421.963 117.183 429 120C427.546 127.834 426.414 148.088 434 153L436 144C427.149 138.643 433.832 127.896 434 120L439 121L431 118L438 115L438 114C435.013 114.035 428.906 116.864 426.532 115.539C422.372 113.215 423.006 104.955 423 101C422.982 89.8285 426.313 72.279 422 62z"/>
<path style="fill:#979797; stroke:none;" d="M414 65C402.561 72.9333 378.591 72 365 72L365 74L369 74L369 76L350 76L352 80C358.752 78.2137 361.567 78.8522 368 81C373.484 72.06 391.857 81.5683 401 79L404 82L404 77L400 76C403.369 71.5562 415.519 70.542 414 65z"/>
<path style="fill:#4d4d4d; stroke:none;" d="M414 68L400 76L404 77L404 82L401 79C393.075 80.6296 371.551 72.1663 368 81L357 79L357 82L362 87L366 88L366 89L361 88L362 96L367 96L367 90L371 97C375.342 96.2758 375.906 93.9975 377 90L381 91C385.376 88.0216 388.296 91.5461 389 96C374.245 97.1631 383.777 119.172 397 117L397 112L402 113L401 106L404 112L414 108L411 109C408.459 104.846 403.721 103.257 399 103L399 108L395 100L401 100L402 97L402 90L415 90L414 68z"/>
<path style="fill:#a3a3a3; stroke:none;" d="M125 80L125 83L112 83L112 84C115.258 84.2866 122.527 85.1432 122.118 89.8735C121.719 94.4875 113.956 99.7263 110.973 102.866C104.749 109.417 95.6725 121.848 95 131L99 129L99 136L117 114L111 115L111 119L105 121C107.476 107.888 109.571 105.148 123 106L125 124L126 124L130 107L136 101L134 94L131 94L131 90L135 91L137 83L141 85L148 80L147 77L156 78L156 71L125 80z"/>
<path style="fill:#b6b6b6; stroke:none;" d="M469 72C471.327 79.0164 494.064 79.9219 491.558 90.8295C491.137 92.6622 488.979 94.4053 488 96L487 96L486 96L480 94C478.119 88.749 470.315 82.3932 465 81L466 107L462 107L462 113L440 107C439.018 99.7521 434.816 92.196 427 91L427 87L425 87C425 91.7957 423.282 100.793 426.603 104.671C431.299 110.154 439.907 106.393 443 115L438 115L438 116L445 117L445 113C457.003 117.276 455.4 135.615 466.204 139.829C471.5 141.894 472.056 134.214 471.714 131C471.339 127.464 472.213 123.57 471.597 120.17C470.985 116.786 468.209 114.671 468.148 110.999C468.031 103.925 470.173 97.1056 469 90C484.858 97.4722 492.901 108.978 497 126L498 126L500 104L504 106L505 98L505 97L499 97L500 92C497.068 86.8625 503.041 85.3099 507 84C496.825 79.7209 479.994 72.2342 469 72M64 74L64 75L98 75L64 74z"/>
<path style="fill:#929292; stroke:none;" d="M304 74L294 87L294 88L299 88C301.983 82.5901 306.06 84.8391 311 86L311 83L318 87L323 85L327 88C324.129 75.1015 315.519 74.0242 304 74z"/>
<path style="fill:#b3b3b3; stroke:none;" d="M525 74L525 75L563 76L552 74L525 74z"/>
<path style="fill:#515151; stroke:none;" d="M40 85L40 86L44 90L41 91L44 92L28.2863 100.376L8 117L21 110C22.4436 116.702 32.6613 105.057 35.9167 103.222C40.9267 100.398 44.7172 95.9164 49.3056 92.6111C51.7846 90.8253 55.3368 90.8526 57.5 88.5278C63.2431 82.3554 65.9979 76.042 76 76C61.2071 69.7927 52.4487 82.2755 40 85z"/>
<path style="fill:#767676; stroke:none;" d="M76 75L76 76L104 78C97.4735 72.3703 84.1958 75 76 75z"/>
<path style="fill:#474747; stroke:none;" d="M500 92L499 97L505 97L521 121C528.474 123.686 529.114 134.088 531 141C536.459 140.637 543.175 140.497 547.657 144.472C550.818 147.275 549.557 151.7 554 153C554.995 159.236 561.586 159.606 567 161L557 150L563 152L558 137L552 139L548 122L555 123C554.057 118.479 547.316 113.716 544.832 120.228C543.226 124.438 545.962 131.434 546 136L540 134L542 139L537 135L531 137C529.836 122.376 522.486 115.036 514.764 103.53C512.637 100.362 513.198 96.2928 510.567 93.3395C507.87 90.3123 503.805 88.9551 501 86L533 77.2245L558 91C554.967 86.345 547.457 81.1053 542 80C552.097 72.855 560.431 84.8846 568 89C568 85.6118 571.476 87.5351 574 88L576 86C568.059 72.5329 549.148 75 536 75C530.788 75 524.868 74.2063 520 76.4174C515.839 78.3072 494.472 86.8935 500 92z"/>
<path style="fill:#353535; stroke:none;" d="M63 82L77 79C70.662 89.2492 54.9696 89.2399 51 102L61 100L58 97L58 96L65 97C71.0732 83.7883 87.7665 78 101 78C93.8522 72.5849 67.7835 73.8844 63 82z"/>
<path style="fill:#b1b1b1; stroke:none;" d="M563 76L563 77L573 78L563 76z"/>
<path style="fill:#787878; stroke:none;" d="M16 92L16 93L34 89L35 94L44 90L40 86L40 85L56 78C49.2466 75.1989 43.585 81.0702 37.9606 84.027C31.0471 87.6616 23.2461 89.2663 16 92z"/>
<path style="fill:#0b0b0b; stroke:none;" d="M501 86C503.189 89.7923 507.84 90.8057 510.657 94.1389C513.068 96.9915 512.415 100.564 514.199 103.602C521.31 115.713 529.218 122.078 531 137L537 135L542 139L540 134L546 136C545.992 132.933 543.886 108.737 553.276 119.322C557.401 123.971 557.114 131.668 561 137L568 135C571.368 146.83 593.034 160.62 605 161L605 160L601 156L596 153L616 158L616 146L606 144L593 129C601.443 133.054 606.043 137.993 616 138L616 117L604 112C600.689 116.754 591.756 106.824 590 103C575.691 102.214 568.89 83.6796 556 80.1466C550.581 78.6613 546.626 75.2814 542 80L568 92L572 102L552 100L552 97C544.033 97.4371 539.8 94.2469 535 88C540.621 89.2356 547.645 88.5981 551 94L555 93C546.854 83.8291 535.009 73.8832 522 77.6381C514.444 79.8192 509.265 85.4736 501 86z"/>
<path style="fill:#717171; stroke:none;" d="M565 77L565 78L576 86L574 88L567 87C571.537 93.8883 580.508 101.899 589 102L578 92L602 92L602 91L580 89L580 88L584 85L575 83C573.836 77.6492 569.97 77.2174 565 77z"/>
<path style="fill:#1b1b1b; stroke:none;" d="M65 97L58 96L58 97L61 100L51 102L77 79C59.1807 81.6218 50.7842 93.7531 35.8156 102.807C32.2269 104.978 24.2793 114.308 21 110L8 117L28.2863 100.83L44 92L35 94L34 89L0 94L0 141C8.09128 139.333 24.4001 137.092 27 128L31 128C24.4667 137.153 11.3857 146.245 0 147C0 151.102 -1.85283 158.96 3 160L0 171L1 171L10 164L9 159L31 150L29 153L29 154C42.3762 153.38 47.3705 140.639 58 135C58.6771 139.062 63.182 135.078 64.6389 133.111C67.3703 129.423 68.4302 121.624 69 117L72 117L72 120L77 120L75 137L82 135L78 139L78 140L88 137C92.0527 141.281 92.8137 130.419 93.2508 128C95.7123 114.377 109.541 94.6957 121 88C107.028 75.2587 90.1507 75.602 75.7145 85.8341C70.8016 89.3163 66.9272 90.983 65 97z"/>
<path style="fill:#7b7b7b; stroke:none;" d="M349 103L355 90C361.625 93.9428 360.56 103.016 365.023 108.397C369.271 113.52 373.386 106.684 374.076 103.004C374.449 101.009 374.744 99.0117 375 97L371 97L367 90L367 96L362 96L361 88L366 89L366 88L362 87C361.423 83.5256 360.474 82.5765 357 82L357 79L364 79L364 78L352 80C350.215 77.9579 347.309 77.4746 345.703 80.3179C342.755 85.5379 342.309 101.883 349 103z"/>
<path style="fill:#acacac; stroke:none;" d="M440 78L440.603 92.2577L450 98C460.484 94.5199 445.829 83.2227 445 78L440 78z"/>
<path style="fill:#ababab; stroke:none;" d="M106 79L109 81L106 79z"/>
<path style="fill:#d6d6d6; stroke:none;" d="M164 94L164 106C156.619 104.823 158 98.0034 158 92L157 92L156 111L159 111C159.037 115.037 158.782 118.517 163 120L174 107C185.773 106.958 186.685 92.7029 198 94C195.765 83.5188 185.128 95.7224 184 101L183 101L184 84L183 84C182.766 93.6739 177.434 92.8493 170 96C171.428 90.5133 174.093 86.4499 180 86L182 82C177.047 76.4167 168.188 91.5387 164 94z"/>
<path style="fill:#2b2b2b; stroke:none;" d="M207 80L207 92L216 96L217 96L219 94L214 97L212 107L207 106L207 112L217 113C218.334 108.83 218.433 105.442 223 104L223 110L227 116C237.315 114.048 237.579 108.814 238 99L235 99L235 104L231 104L227 108L232 91L229 91L230 97L221 93L221 90L208 88L207 80z"/>
<path style="fill:#929292; stroke:none;" d="M575 80L575 83L584 85L580 88L580 89L592 88L575 80z"/>
<path style="fill:#b4b4b4; stroke:none;" d="M154 81L139 97C144.413 96.1619 150.275 88.8679 155 93C150.543 93.9601 153.035 100.196 153 104C152.914 113.325 151.481 122.685 151.028 132C150.869 135.274 151.224 140.325 155.028 141.472C159.229 142.739 160.973 135.807 162.194 133C165.122 126.272 170.37 111.861 179 114L179 110C189.036 108.4 196.097 104.055 198 94C193.545 92.9447 190.324 93.904 188 98L194 96C193.665 100.394 192.444 102.291 188 103L188 99C182.422 102.802 181.765 106.909 174 107L163 120C159.345 117.865 159.098 115.051 159 111L156 111L158 81L154 81z"/>
<path style="fill:#b1b1b1; stroke:none;" d="M180 81L180 86C173.81 86.2032 170.897 89.9823 170 96C176.98 93.8221 189.332 90.1387 180 81z"/>
<path style="fill:#484848; stroke:none;" d="M117 85L117 86L121 88C105.937 94.2731 93.2606 120.05 92 136C95.0508 133.678 94.4282 130.486 95.8951 127.171C98.5087 121.263 102.53 113.641 106.431 108.458C110.705 102.779 120.406 97.7215 122.377 90.7261C123.451 86.9171 119.928 85.6106 117 85z"/>
<path style="fill:#c0c0c0; stroke:none;" d="M591 86C596.857 92.2216 607.8 93.6479 616 94L616 92L591 86z"/>
<path style="fill:#2e2e2e; stroke:none;" d="M535 88C538.774 95.2144 544.116 97.925 552 97L552 100L572 102L568 92L552 90L552 91L555 92L555 93L551 94C549.679 87.8061 540.022 88.3555 535 88z"/>
<path style="fill:#a6a6a6; stroke:none;" d="M381 91L377 90L374 106L375 106L376 102L377 105L381 105C381.726 100.031 383.901 96.8228 389 96C388.672 91.7535 384.981 86.5208 381 91z"/>
<path style="fill:#757575; stroke:none;" d="M130 107L129 114L130 114L135 104C141.734 103.976 146.135 101.934 148 95L155 93C149.195 84.2958 134.381 104.617 130 107z"/>
<path style="fill:#eaeaea; stroke:none;" d="M235 94C248.951 101.634 234.719 112.055 232 121C228.995 120.33 226.142 118.877 222.986 119.208C203.206 121.28 207.895 149.301 208 162L209 162L211 148L214 148C213.563 142.388 208.729 138.71 215 135C216.337 141.208 223.076 130.04 227 129C227.286 133.07 228.44 134.986 232 137C229.884 143.676 229.634 147.752 237 150L240 148C243.328 154.374 251.013 157.683 258 157L256 168L256 164L254 164L257.315 187.701L265.532 195.13L267 211L285 213L285 209L289 210L288 203L277 203L277 190L310 185L310 184C306.273 179.715 304.066 171.652 304 166L310 168L311 164L319 166L312 185L333 185L334 181L346 182L346 186L352 182L353 186L358 185L360 178C355.461 175.06 353.061 160.486 353 155L356 158L358 158L359 154L376 154L388 144C386.231 138.285 376.029 131.947 385 127C388.363 132.147 395.736 128.354 401 129C399.899 122.08 394.698 123.225 390 119.682C383.923 115.099 382.981 107.686 375 107L373 115L360 118L361 112L357 112L356 103L350 102L349 107L341 106L339 112L334 111C334.936 121.412 333.771 126.958 330 137L333 138L333 139C328.672 140.166 325.51 140.863 324 136C329.625 134.063 330.328 128.281 331 123L317 122L316 107L315 107L311 114L312 124C302.76 117.566 307.272 109.067 306 99L297 98L298 101L302 103L297 103C297.282 109.582 298.175 118.302 289 118L289 124L285 123L288 111L284 112L282 106L273 106L264 106L259 112L259 114C262.492 115.057 263.432 116.418 264 120L256 117L256 113L251 114L245 92L241 93C238.756 89.528 236.436 90.4346 235 94z"/>
<path style="fill:#6a6a6a; stroke:none;" d="M469 90C469.633 97.5893 467.114 105.586 468.151 112.985C469.159 120.178 472.459 126.071 471.762 133.999C471.147 141.004 465.632 139.849 463 135L462 135L458.174 158L459 178C464.269 180.905 463.847 190.386 465 196L466 196L463.299 168L466 151L468 151L475 172L476 172L478 157C467.031 154.354 465.469 142.956 476 138L471 95C478.494 98.5992 478.637 103.993 488 104C484.548 96.5142 476.676 92.2407 469 90z"/>
<path style="fill:#2f2f2f; stroke:none;" d="M578 92L589 102L584 102L584 103L590 103C590.653 106.642 602.479 119.099 604 112C610.224 114.781 615.864 121.403 616 110C608.972 107.814 598.809 102.478 595 96L616 107L616 94L578 92z"/>
<path style="fill:#434343; stroke:none;" d="M148 95L151 97L150 110L151 110L152 95L148 95z"/>
<path style="fill:#212121; stroke:none;" d="M471 95L476 138C467.048 140.536 468.061 147.672 470 155L481 156L480 151L486 152C495.848 148.451 492.348 138.107 492 130L496 130L488 104L471 95z"/>
<path style="fill:#737373; stroke:none;" d="M152 96L151 128L148 128L151 139L152 139L152 96z"/>
<path style="fill:#717171; stroke:none;" d="M193 96C189.417 97.7427 188.311 98.9887 188 103C192.5 102.649 194.848 100.564 193 96z"/>
<path style="fill:#4e4e4e; stroke:none;" d="M428 96L428 103L432 103L431 96L428 96z"/>
<path style="fill:#626262; stroke:none;" d="M595 96C597.387 102.737 609.324 108.727 616 110C614.052 104.382 600.938 96.8848 595 96z"/>
<path style="fill:#292929; stroke:none;" d="M135 104L125 134L128 134L128 142C121.609 144.248 125.678 151.001 125.957 156C126.728 169.845 126.025 184.61 129 198L130 198L129 190L134 189L134 185L136 185C136.387 194.002 136.413 204.244 146 208C140.014 198.489 138 194.732 138 183L150 189L150 176L147 176L145 160L147 162L148 162L148 157C163.243 154.569 148.499 135.668 148 128L151 128L151 97L135 104z"/>
<path style="fill:#e1e1e1; stroke:none;" d="M503 98L504 106L500 104L499.108 130.896L502.853 139.043L502 179C521.375 164.808 505.39 134.48 502 117L505 114L516 124C528.634 118.921 508.915 101.187 503 98z"/>
<path style="fill:#d6d6d6; stroke:none;" d="M105 121L111 119L111 115L117 114L118 131L115 131L110 164L113 164C114.201 173.805 116.517 192.748 126 198L123 179L124 179L125 184L126 184L126 176L121 178L124.647 124L123 106C109.807 104.392 106.3 107.449 105 121z"/>
<path style="fill:#777777; stroke:none;" d="M401 106L402 113L397 112L397 117L389 117L399 119L406 114L406 122L413 120L410 124L414 131C414.064 123.295 418.163 104.679 404 112L404 106L401 106z"/>
<path style="fill:#959595; stroke:none;" d="M382 107C382.429 120.233 393.154 117.61 400 124L404 121L411 128L410 124L413 120L406 122L406 114C402.407 114.491 400.176 115.458 399 119C389.133 119.307 387.238 114.183 382 107z"/>
<path style="fill:#5c5c5c; stroke:none;" d="M57 108L55 112L58 111L54 115L54 119L50 119L50 122L55 119L60 121L65 115L58 117L62 110L59 108L57 108z"/>
<path style="fill:#646464; stroke:none;" d="M560 113C551.082 114.951 570.516 123.618 574 124C572.977 119.159 569.734 116.274 565 115L567 108C563.213 108.345 559.926 108.723 560 113z"/>
<path style="fill:#414141; stroke:none;" d="M422 112C422 136.149 418.591 163.252 423 187L424 187L432.481 154.83L429 120L422 112z"/>
<path style="fill:#383838; stroke:none;" d="M158 150C163.565 152.228 164.557 156.197 163.871 161.961C163.43 165.666 160.96 168.564 160.259 172.171C157.856 184.536 159.205 196.132 163 208L166 208C170.481 200.884 167.337 194.839 167 187C170.41 186.737 171.901 186.321 173 183L167 182L168 168L173 178L174 178L173 162C179.232 160.918 178.37 153.142 180 148L185 152L186 152L187 149C189.161 154.713 191.534 176.829 197 178L198 194L192 193C194.089 196.175 195.547 196.497 199 195L199 199L200 199L199 123L198 123L191 152L190 152L184 138C172.135 138.384 182.663 118.618 191 118L191 114L179 116C174.843 109.618 170.539 117.142 168.051 121C162.16 130.135 158.519 139.217 158 150z"/>
<path style="fill:#848484; stroke:none;" d="M198 113L196 118L194 118L191 115L182 124L183 124L189 120C189.848 127.742 192.606 137.561 187 144L190 152L191 152C191.829 140.565 202.686 124.167 198 113z"/>
<path style="fill:#363636; stroke:none;" d="M206 113L206 136L208 136L206 113z"/>
<path style="fill:#4c4c4c; stroke:none;" d="M445 113L445 117C440.113 116.514 434.23 113.022 431 118C442.158 118.362 452.043 141.609 437 139L436 144L437 144L440 141L449 172C433.546 172.055 436.848 200.439 434 212L432 212L431 199L425 201L430 201L430 208L426 208L427 218L443 220L447 226L451 231L451 225L452 225L454 231L459 223L464 223L464 222L454 224L454 217L451 217L450 224C440.953 218.611 436.338 197.879 447 192C447.769 195.589 449.863 194.834 453 194L453 206C463.651 205.874 464.659 196.619 463.259 188C462.549 183.625 463.932 179.637 459 178C459.812 171.567 457.831 166.24 458.106 160C458.369 154.02 462.57 149.562 463.231 144C464.307 134.962 454.004 114.904 445 113z"/>
<path style="fill:#808080; stroke:none;" d="M127 114L124 144L125 144L128 142L128 134L125 134L129 114L127 114z"/>
<path style="fill:#949494; stroke:none;" d="M216 114L216 121L210 120L213 127L214 127C217.986 118.048 224.195 119.967 232 121L224 118L225 115L216 114z"/>
<path style="fill:#6a6a6a; stroke:none;" d="M494 114L495 141L497 140L497 144L499 144C500.2 134.496 499.016 122.371 494 114z"/>
<path style="fill:#9f9f9f; stroke:none;" d="M505 114L502 117L511.455 156.91L504 186L505 186L509 168C513.87 166.288 514.035 159.638 513.946 155C513.704 142.45 507.505 129.732 506 117L509 117L509 121C516.122 123.159 523.826 137.788 524 145C528.151 147.289 527.984 150.579 528 155L529 155L531 152L531 158C537.438 159.342 537.551 164.401 539 170L540 170L543 165L538 155C544.808 154.888 549.439 165.052 551 171C546.99 170.496 543.451 169.233 541 173L543 171L557.04 179.852L569 181L563 172C558.015 172.154 556.363 169.798 556 165L561 165L562 159L562 158C557.538 158.228 555.302 157.451 554 153C550.495 150.858 550.95 147.337 548.272 144.588C543.952 140.152 536.526 140.306 531 141C529.845 134.286 528.575 122.616 521 121L520 115L519 115C519.74 119.245 519.863 121.623 516 124L505 114z"/>
<path style="fill:#515151; stroke:none;" d="M69 117L68 123C73.2636 124.943 71.6997 127.61 70 132C73.9336 134.67 71.0237 137.891 68.6458 140.996C63.7228 147.424 54.4527 149.829 51 157L65 151L57 160C65.9655 157.788 71.8849 155.801 70 145L82 141L82 140L78 140L78 139L82 135L75 137L77 120L72 117L69 117z"/>
<path style="fill:#616161; stroke:none;" d="M109 121L109 122L115 124L119 120L119 118L109 121z"/>
<path style="fill:#666666; stroke:none;" d="M506 117L510 142L511 142C510.688 135.162 505.243 125.948 513 122L513 121L509 121L509 117L506 117z"/>
<path style="fill:#1e1e1e; stroke:none;" d="M172 119C167.067 128.906 160.751 136.181 160 148L166 148C166.372 159.181 173.507 151.543 179 149L174 119L172 119z"/>
<path style="fill:#c4c4c4; stroke:none;" d="M184 138L189 144L189 120C181.77 121.761 171.951 140.026 184 138M434 120L433 144L437 139C450.94 143.2 444.323 121.887 434 120z"/>
<path style="fill:#949494; stroke:none;" d="M115 121L116 131L118 131L118 121L115 121z"/>
<path style="fill:#cbcbcb; stroke:none;" d="M393 121L393 122C397.404 122.673 399.782 124.703 401 129L385 127C375.31 130.216 385.702 139.445 388 144L376 153L385 150L385 152L392 151L396 129L407 145L406 140L409 147L412 147L412 153L414 153L414 131L404 121L400 124L393 121z"/>
<path style="fill:#7d7d7d; stroke:none;" d="M548 122L549 127L555 124L548 122z"/>
<path style="fill:#a8a8a8; stroke:none;" d="M63 136L67 134L68 134L68 138L70 138C69.8927 134.554 73.0983 127.838 72.2492 125.348C69.5589 117.457 63.6309 134.38 63 136z"/>
<path style="fill:#a5a5a5; stroke:none;" d="M552 139L557 137L556 133L560 136C559.382 134.547 553.545 118.396 550.736 125.384C549.738 127.868 552.058 135.718 552 139z"/>
<path style="fill:#535353; stroke:none;" d="M115 124L108 167L109 167L112.371 140L115 124z"/>
<path style="fill:#444444; stroke:none;" d="M27 128C22.961 136.675 11.0775 137.266 3 140L3 141L15 143L16 143L31 128L27 128z"/>
<path style="fill:#7a7a7a; stroke:none;" d="M70 129L70 138L68 138L68 134L67 134L62 148C65.6756 146.276 78.1555 133.748 70 132L70 129z"/>
<path style="fill:#c3c3c3; stroke:none;" d="M93 146C98.6223 144.023 98.9529 134.262 99 129C92.4865 132.408 93.0007 139.493 93 146z"/>
<path style="fill:#b3b3b3; stroke:none;" d="M215 135C207.521 137.864 213.145 142.575 214 148L211 148L209 162L208 162L208 154L207 154L207 175L209 175L209 166C214.824 164.066 214.483 150.749 215 145L219 145C219.752 139.549 221.151 135.82 227 135L230 139L228 149L232 153L240 149L240 148L237 150C230.023 146.925 230.424 143.917 232 137L227 129L215 135z"/>
<path style="fill:#828282; stroke:none;" d="M396 129L392 151L385 152L385 150C377.191 152.466 364.68 159.057 364 168L367 165L368 177L371 177L371 180C365.802 180.902 365.622 185.586 364 190L360 189L360 209C372.184 203.192 375.797 192.638 373.853 180.015C372.343 170.214 365.312 161.416 379 156C379.845 161.072 384.05 166.516 389 168L393 155L403 153L403 147L406 149L407 149L403 146L400 142C402.743 136.692 401.399 131.807 396 129z"/>
<path style="fill:#3e3e3e; stroke:none;" d="M593 129L606 144L612 145L612 144L608 141L616 138L593 129z"/>
<path style="fill:#3c3c3c; stroke:none;" d="M492 130C492.181 138.767 495.262 146.947 486 152L480 151L481 156L472 155L478 157L475 176L476 176C477.829 172.071 491.056 149.249 495.485 162.189C496.991 166.587 494.133 171.511 494 176L485 173C484.639 179.574 480.581 182.998 475 186L475 181L473 181L473 189L485 183L485 200L486 200L486 191L492 190L492 197L493 197C496.237 186.626 492.826 173.435 501 165L500 144L497 144L497 140L495 141L496 130L492 130z"/>
<path style="fill:#dddddd; stroke:none;" d="M556 133C557.216 138.368 559.616 147.857 565 150C564.303 143.004 561.978 136.945 556 133z"/>
<path style="fill:#dfdfdf; stroke:none;" d="M65 134L57 150C61.8744 147.958 66.5509 139.257 65 134z"/>
<path style="fill:#a1a1a1; stroke:none;" d="M414 134L414 153L412 153L412 147L409 147C409 143.637 409.716 140.796 406 140L407 145L403 137L402 137L400 142L403 146L407 146L409 171L413 171L413 176L415 176C415 164.043 418.611 144.988 414 134z"/>
<path style="fill:#b9b9b9; stroke:none;" d="M500 134C499.664 141.839 496.575 158.649 501 165C491.822 171.484 495.199 190.287 495 200C502.206 197.492 505.794 180.987 506 174L505 174L502 179C502.936 168.264 503 157.892 503 147C503 142.313 504.145 136.989 500 134z"/>
<path style="fill:#3d3d3d; stroke:none;" d="M520 134L522 149L527 156L528 156C528 151.475 528.983 146.654 524 145L520 134z"/>
<path style="fill:#3b3b3b; stroke:none;" d="M44 148L46 150L52 146L53 149C57.9888 145.902 59.8702 142.677 61 137L58 135C52.6804 136.851 46.4668 142.974 44 148z"/>
<path style="fill:#7c7c7c; stroke:none;" d="M219 145L215 145C214.076 150.95 214.299 163.131 209 166L209 175L210 175L210 172L216 173L215 152L215 151L215 150L219 147C219.255 150.274 232.024 167.764 235.851 167.079C240.017 166.334 243.035 152.739 249.697 161.573C255.336 169.05 248.419 176.494 247.619 184C246.183 197.464 254.617 206.515 266 213L263.362 193.253L257.329 186.856L254 164L256 164L256 168C259.909 165.436 258.178 161.166 258 157L238 149L232 153L228 149L230 139L227 135C220.732 135.441 219.478 139.212 219 145z"/>
<path style="fill:#4c4c4c; stroke:none;" d="M561 137C563.123 142.686 564.162 148.998 571 150L571 146L574 149L579 148L568 135L561 137z"/>
<path style="fill:#959595; stroke:none;" d="M62 136L61 139L62 136z"/>
<path style="fill:#aaaaaa; stroke:none;" d="M92 136L88 137L70 145C71.2309 157.716 62.4745 154.316 58 162L61 161L57 169L66 165L64 172C69.5759 167.753 78.5941 162.328 79 155C83.7741 157.782 80.8203 161.009 79 165L82 165L80 172C85.2757 168.92 85.3159 164.543 84 159L87 157L94 157L94 171L95 171C95 159.775 96.4078 146.5 92 136z"/>
<path style="fill:#848484; stroke:none;" d="M98 136L96 146C99.5152 143.721 99.5512 139.698 98 136z"/>
<path style="fill:#575757; stroke:none;" d="M206 136L206 174L207 174C207 163.089 210.211 146.036 206 136z"/>
<path style="fill:#a1a1a1; stroke:none;" d="M123 140L121 178L126 176L126 184L125 184L124 179L123 179L125 200C129.526 199.03 127.924 190.105 128 186C128.221 174.073 124.708 161.575 123.111 149.972C122.62 146.404 124.833 143.218 123 140z"/>
<path style="fill:#696969; stroke:none;" d="M608 141L616 146L616 140L608 141z"/>
<path style="fill:#676767; stroke:none;" d="M0 141L0 147L15 144L15 141L0 141z"/>
<path style="fill:#767676; stroke:none;" d="M153 141L158 164C160.824 163.926 162.599 162.894 163 166L164 166C164 159.449 165.796 151.916 158 150C158.692 145.042 158.06 142.416 153 141z"/>
<path style="fill:#474747; stroke:none;" d="M11 151C16.1043 150.235 21.2106 148.56 24 144C18.8817 144.564 14.2529 147.028 11 151z"/>
<path style="fill:#8e8e8e; stroke:none;" d="M58 144C56.0648 146.089 54.2992 148.427 52 146L46 150C42.2402 145.954 25.5034 156.779 23 161C33.0918 160.993 39.0687 155.849 48 152L45 155L46 158L42 165L58 162L58 157L57 154L51 157L59 151L59 150L58 144z"/>
<path style="fill:#474747; stroke:none;" d="M599 144C601.321 149.286 605.46 150.742 611 151L611 150L599 144z"/>
<path style="fill:#d1d1d1; stroke:none;" d="M80 145L79 153L82 152L87 154L88 145L80 145z"/>
<path style="fill:#636363; stroke:none;" d="M123 145L125 171L126 171C126 162.38 127.366 152.783 123 145z"/>
<path style="fill:#cecece; stroke:none;" d="M535 145L535 155C544.908 152.208 547.341 145.112 535 145z"/>
<path style="fill:#959595; stroke:none;" d="M110 146C109.676 161.675 111.945 173.028 117 188L118 188L113 164L110 164L110 146z"/>
<path style="fill:#9d9d9d; stroke:none;" d="M571 146L571 150L567 148L566 148L565 148L561 155L561 156L567 161L563 160L572.83 163.304L587 171L575 152C583.324 155.518 589.292 162.709 599 161C594.714 155.549 580.778 147.602 574 149L571 146z"/>
<path style="fill:#2e2e2e; stroke:none;" d="M217 147L215 150L215 151L215 152L216 173L210 172L207 175L206 203L209 203C208.993 192.641 207.673 183.668 212 174L221 174L219 162L230 166C230.141 172.303 229.952 180.502 237 183L235 176L235 175L240 175C239.807 169.416 242.864 156.235 250 165L251 165C248.777 149.878 238.157 166.842 235.126 166.383C231.468 165.83 219.518 150.248 219 147L217 147z"/>
<path style="fill:#a1a1a1; stroke:none;" d="M180 148C177.834 153.132 179.087 160.077 173 162C173.007 171.693 176.865 168.141 180.972 174.318C183.55 178.194 181.297 182.374 185 186C182.111 175.08 179.637 159.005 182 148L180 148z"/>
<path style="fill:#acacac; stroke:none;" d="M438 148L437 170L438 170L438 161L440 161L439 182L440 182C440.064 174.928 441.657 172.087 449 172C448.994 164.869 446.186 149.326 438 148z"/>
<path style="fill:#dedede; stroke:none;" d="M181 149L188 210C191.848 207.281 191.049 202.337 190.996 198C190.855 186.408 186.953 173.791 185.83 162C185.379 157.258 186.133 150.704 181 149z"/>
<path style="fill:#090909; stroke:none;" d="M186 149C184.035 159.583 184.703 192.121 198 194L197 178L186 149z"/>
<path style="fill:#767676; stroke:none;" d="M408 149L405 157L407 161L408 161C409.574 156.592 410.546 153.251 408 149z"/>
<path style="fill:#383838; stroke:none;" d="M18 155L18 156L21 156L17 160L17 161C19.7793 160.988 32.6001 156.477 29 154L31 150L18 155z"/>
<path style="fill:#d8d8d8; stroke:none;" d="M154 150C153.282 157.051 149.734 163.849 149.088 170.995C148.768 174.539 150.781 177.518 150.977 181.005C151.235 185.603 149.534 192.401 155 194L156 214L152 213C152.6 221.087 162.927 225.294 163.827 214.999C164.538 206.876 158.156 199.83 157.125 191.961C156.073 183.935 159.131 176.956 159.296 169C159.425 162.751 157.271 156.316 157 150L154 150z"/>
<path style="fill:#cccccc; stroke:none;" d="M557 150C558.19 153.771 560.172 154.569 564 155L557 150z"/>
<path style="fill:#d9d9d9; stroke:none;" d="M56 157L65 151C60.727 151.741 57.6416 152.803 56 157z"/>
<path style="fill:#c8c8c8; stroke:none;" d="M466 151L466 196L463 196C462.848 203.126 457.86 209.881 459.229 216.941C460.899 225.551 469.675 217.475 471 213L466 216L467.513 197.015L474.759 170.925L468 151L466 151z"/>
<path style="fill:#d4d4d4; stroke:none;" d="M14 164L14 165L17 167L41 162L32 175L44 166C42.0788 162.926 43.0981 160.128 46 158L45 155L48 152L31 160.301L14 164z"/>
<path style="fill:#575757; stroke:none;" d="M514 152L508 181L509 181L513 168L516 168L514 152z"/>
<path style="fill:#dcdcdc; stroke:none;" d="M529 152C527.817 158.372 524.55 179.036 535 178L541 226L542 226L539 183L545 192L547 192L541 175L548 178C547.254 173.413 545.709 170.837 541 173C538.856 166.963 538.277 158.837 531 158L531 152L529 152z"/>
<path style="fill:#4a4a4a; stroke:none;" d="M565 152L572 157L565 152z"/>
<path style="fill:#f4f4f4; stroke:none;" d="M575 152L587 171L573 165L581 176L567 168L581 186L557.04 179.153L547 172L548 178L541 175L547 192L545 192L539 183C539 195.557 537.205 216.697 543.059 227.91C546.21 233.948 554.193 235.667 556.932 241.109C559.542 246.294 553.401 251.167 556.638 256.715C561.737 265.453 572.334 271.517 576.686 280.054C579.069 284.728 577.772 290.852 578.963 295.91C581.259 305.66 584.712 316.387 588.21 325.829C590.555 332.161 597.191 336.577 600 343L616 345L616 220L616 187C616 182.795 617.23 176.201 614.972 172.464C608.339 161.484 601.244 164.154 591.576 160.541C585.668 158.333 581.055 153.574 575 152z"/>
<path style="fill:#595959; stroke:none;" d="M596 153L601 156L605 160L604 162L610 164L605 158C609.863 158.961 613.15 159.67 614 165L616 165L616 158L596 153z"/>
<path style="fill:#cfcfcf; stroke:none;" d="M359 154L358 158L356 158L353 155C353 159.794 355.475 177.03 360 178L358 185L353 186L352 182L346 186L346 182L334 181L333 185L312 185L319 166L311 164L310 168L304 166C304.019 171.329 305.608 180.657 310 184L310 185L306 185L306 186L325 186L325 191L333 188L336 193L341 190L336 194C336.199 198.304 334.054 207.94 339 209L338 212L343 209L356 211L356 193L360 193L360 189L364 190C366.042 185.837 366.16 181.529 371 180L368 177L367 165L364 168L376 154L359 154z"/>
<path style="fill:#838383; stroke:none;" d="M538 155L543 165C539.597 165.729 540.013 167.806 540 171L551 171C549.784 164.759 545.193 154.448 538 155z"/>
<path style="fill:#4a4a4a; stroke:none;" d="M79 155L76 165C80.1817 163.09 85.9269 157.321 79 155z"/>
<path style="fill:#555555; stroke:none;" d="M95 155C95 169.009 90.7634 183.239 92.5756 197C93.2206 201.898 92.4693 206.994 97 210L96 207L100 211L101 211L100 192L96 192C96 181.351 99.1113 164.798 95 155z"/>
<path style="fill:#999999; stroke:none;" d="M9 159L8 164L8 165L13 167L18 162L17 160L21 156L9 159z"/>
<path style="fill:#454545; stroke:none;" d="M373 176C370.988 165.161 375.953 164.601 379 156C371.232 158.045 365.218 170.388 373 176z"/>
<path style="fill:#6f6f6f; stroke:none;" d="M527 156C527 170.402 530.221 190.372 525.105 204C519.745 218.279 505.343 230.853 503 246C498.729 247.264 497.241 249.837 496 254C501.529 252.864 506.529 251.986 508 246L513 246L513 242L519 242L519 247L520 247L516 236L520 236L520 235L516 235L524 211L527 211L533 230L537 232L538 232L534 226L534 211L533 211L533 216C526.644 209.775 531.019 198.621 531.871 191C532.649 184.049 529.099 177.865 528.286 171C527.703 166.085 528.927 160.591 527 156z"/>
<path style="fill:#f4f4f4; stroke:none;" d="M87 157L84 159C85.0016 164.48 84.4485 167.569 81 172L80 172L71 172L72 168L54 181L59 172L64 173L66 165L63 168L57 169L61 161L42.0787 166.518L32 175L41 162L17 167L13 165C10.502 170.383 5.99972 173.73 0 173L0 345C5.91406 345 13.5129 346.221 18.9452 343.427C30.9786 337.238 34.5047 320.256 38.8349 309C40.2969 305.2 42.9153 302.069 43.7508 298C44.8553 292.62 43.8093 286.097 45.7384 281.015C49.4708 271.181 64.5564 265.006 67.4321 254.671C68.6936 250.138 65.0415 243.008 65 238C90.9556 234.386 80.5944 201.989 84.5293 185C85.8528 179.286 90.6134 177.703 92.8519 172.892C95.0054 168.263 94 161.979 94 157L87 157z"/>
<path style="fill:#676767; stroke:none;" d="M148 157L148 162L147 162L145 160C145.014 165.088 144.747 172.564 149 176C148.061 168.567 148.59 163.71 152 157L148 157z"/>
<path style="fill:#1c1c1c; stroke:none;" d="M475 186C481.336 183.723 484.837 179.729 485 173L494 176C494.31 171.222 497.299 166.146 495.486 161.344C493.686 156.575 486.499 158.169 484.008 161.499C478.394 169.006 475.001 176.605 475 186z"/>
<path style="fill:#cdcdcd; stroke:none;" d="M605 158L611 161L605 158z"/>
<path style="fill:#d6d6d6; stroke:none;" d="M560 159L561 165L556 165C556.168 170.131 557.609 172.432 563 172L569 180L566 181L566 182L581 186L567 168L581 176L573 167L573 166L573 165L575 163L560 159z"/>
<path style="fill:#818181; stroke:none;" d="M610 159L608 161L608 162L607 164L607 165L614 165C613.737 161.59 613.321 160.099 610 159z"/>
<path style="fill:#b9b9b9; stroke:none;" d="M0 160L0 164L3 160L0 160z"/>
<path style="fill:#969696; stroke:none;" d="M149 160L148 173L149 173L151 160L149 160z"/>
<path style="fill:#1b1b1b; stroke:none;" d="M452 160C451.284 169.065 447.305 178.242 451 187L453 187C459.334 178.494 459.135 167.95 452 160z"/>
<path style="fill:#646464; stroke:none;" d="M436 161L436 174L437 174L436 161z"/>
<path style="fill:#d9d9d9; stroke:none;" d="M438 161L432 210L435 210L440 161L438 161z"/>
<path style="fill:#8e8e8e; stroke:none;" d="M74 162C69.9235 166.307 65.2636 172.196 59 172L54 181L72 168L71 172L82 170L82 165L79 163L76 165L76 162L74 162z"/>
<path style="fill:#a6a6a6; stroke:none;" d="M162 163L158 164L157 196L158 196L160.259 173.09L162 163z"/>
<path style="fill:#cacaca; stroke:none;" d="M0 173C5.67337 174.208 8.65156 171.303 13 168C7.49142 162.211 2.23816 166.953 0 173z"/>
<path style="fill:#bcbcbc; stroke:none;" d="M608 165L616 172L616 165L608 165z"/>
<path style="fill:#575757; stroke:none;" d="M198 166L198 184L199 184L198 166z"/>
<path style="fill:#464646; stroke:none;" d="M110 168L110 176L113 176L113 181L114 181L112 168L110 168z"/>
<path style="fill:#151515; stroke:none;" d="M168 168L167 182L174 183L171 168L168 168z"/>
<path style="fill:#949494; stroke:none;" d="M423 168L423 179L424 179L423 168z"/>
<path style="fill:#797979; stroke:none;" d="M509 168L503 189L504 189L512 168L509 168z"/>
<path style="fill:#6f6f6f; stroke:none;" d="M173 171C173.283 177.591 175.71 185.615 167 187C167.163 194.902 171.914 203.621 163 208L161 222L168 225L171 217C167.597 217.729 168.013 219.806 168 223L167 207L170 207L170 195L176 191L178 191L179 194L180 194C179.194 187.628 174.159 177.997 181 174L181 182L182 182C181.994 173.89 180.636 172.846 173 171z"/>
<path style="fill:#bbbbbb; stroke:none;" d="M93 172C90.836 175.367 87.1019 177.379 85.483 181.055C80.7867 191.718 83 211.327 83 223L84 223L84 213L87 213L87.6304 186.015L93 172z"/>
<path style="fill:#858585; stroke:none;" d="M93 174C87.2269 187.636 87 197.994 87 213L84 213C84 219.527 76.6568 229.335 83 233L82 228L84 228L84 232L86 229C90.803 227.983 90.2609 222.984 91.7083 219C95.5789 208.346 91.662 199.187 92.0193 188.004C92.1777 183.045 95.0361 178.861 93 174z"/>
<path style="fill:#585858; stroke:none;" d="M187 174L190 192L191 192L187 174z"/>
<path style="fill:#818181; stroke:none;" d="M435 174L434 185L435 185L435 174z"/>
<path style="fill:#272727; stroke:none;" d="M440 193C445.87 189.764 445.995 180.105 446 174C439.239 175.174 438.714 187.386 440 193z"/>
<path style="fill:#909090; stroke:none;" d="M473 174L466 216L471 213L466 221C480.424 214.108 485 197.318 485 183L473 189L475 174L473 174z"/>
<path style="fill:#8c8c8c; stroke:none;" d="M150 176L150 189L138 183C138 190.6 136.15 200.815 144 205L142 201L144 201L143 192C150.387 194.933 152.653 204.078 147 210L151 211L151 216L152 216L152 213L156 214L155 194C148.612 190.092 152.485 181.921 150 176z"/>
<path style="fill:#8f8f8f; stroke:none;" d="M529 176C529.292 179.978 531.682 183.091 531.938 187.015C532.426 194.53 525.025 210.83 533 216L533 211L534 211L534 226L538 230L540 228L541 228L541 230L543 230L536.429 212.91L535 178L529 176z"/>
<path style="fill:#303030; stroke:none;" d="M248 177L246 190L242 187C237.71 194.305 243.307 201.318 246 208C253.793 210.1 263.467 214.322 267 222C273.526 222.73 277.322 227.598 278 234L288 234L288 233L283 233L286 230L284 221C292.43 223.741 300.65 222.744 301 212L304 213L304 206C306.439 205.211 308.543 202.695 311.09 202.461C320.654 201.58 320.533 218.176 327.108 221.141C331.491 223.118 335.812 220.066 340 219C340.393 231.02 352.135 220.876 355 215C349.108 218.225 346.072 217.02 340 215C325.856 226.921 337.479 190.214 324 192C319.97 185.443 316.788 191.957 311.804 192.594C308.459 193.022 303.801 190.081 300 190L301 193L293 193L292 217L276 215C273.083 219.452 270.46 215.837 266.806 214.166C260.188 211.139 249.768 201.289 247.792 194C246.298 188.486 249.628 182.343 248 177z"/>
<path style="fill:#595959; stroke:none;" d="M374 177L373 198L374 198C376.703 191.62 377.972 183.027 374 177z"/>
<path style="fill:#bebebe; stroke:none;" d="M537 182L538 222L539 222C539 210.689 541.339 192.341 537 182z"/>
<path style="fill:#a7a7a7; stroke:none;" d="M277 190L277 203L288 203L289 210L285 209L285 213L267 211L264 192C262.734 197.757 261.506 209.814 267.475 213.681C271.288 216.152 285.025 215.853 290 216L288 196C291.403 195.271 290.987 193.194 291 190L306 186C297.178 182.041 286.286 189.411 277 190z"/>
<path style="fill:#7e7e7e; stroke:none;" d="M291 190L288 196C290.189 202.21 292.502 210.057 288 216L288 217L292 217L293 193L301 193L300 190L311.804 193.187L327 192L327 191L325 186L316 186L310 191L306 189L306 186L291 190z"/>
<path style="fill:#b2b2b2; stroke:none;" d="M306 186L306 189L310 191L316 186L306 186z"/>
<path style="fill:#4c4c4c; stroke:none;" d="M118 188L120 194L121 194L118 188z"/>
<path style="fill:#9e9e9e; stroke:none;" d="M185 188L186 204L187 204L185 188z"/>
<path style="fill:#acacac; stroke:none;" d="M328 189L328 191C332.615 195.945 332 210.108 332 217C337.865 215.715 343.051 211.947 348 217C360.935 212.878 359.537 204.515 360 193L356 193L356 211L343 209L338 212L339 209C334.552 206.113 336.576 198.873 336 194L341 190C338.007 190.064 336.654 189.946 336 193L333 188L328 189z"/>
<path style="fill:#7b7b7b; stroke:none;" d="M495 189L492 204L498 201L498 200L495 189z"/>
<path style="fill:#323232; stroke:none;" d="M501 190L496 203C501.631 200.036 502.979 196.07 503 190L501 190z"/>
<path style="fill:#9e9e9e; stroke:none;" d="M176 191L170 195L170 207L167 207C166.999 211.681 163.988 220.29 168 223L168 217L171 217L171 223L172 223L175 205L172 205L172 197C175.081 197.312 177.242 198.467 178 195L179 195L180 217L182 217C182 208.428 183.099 198.331 178 191L176 191z"/>
<path style="fill:#c6c6c6; stroke:none;" d="M473 209L483 198C475.205 184.18 470.005 200.29 473 209z"/>
<path style="fill:#c0c0c0; stroke:none;" d="M143 192L144 201L142 201C143.611 205.065 145.721 207.781 150 209C150 201.869 151.483 194.067 143 192z"/>
<path style="fill:#6d6d6d; stroke:none;" d="M158 192L161 206L162 206L158 192z"/>
<path style="fill:#717171; stroke:none;" d="M191 192C191 198.032 192.384 205.322 188 210L188 204L187 204C187.146 216.334 192 207.777 192 200L199 200L199 195C195.109 195.888 193.719 194.733 191 192z"/>
<path style="fill:#878787; stroke:none;" d="M431 192L422 196C423.515 200.561 426.864 199.754 431 199L431 192z"/>
<path style="fill:#9a9a9a; stroke:none;" d="M443 193L445 199C449.335 200.318 450.041 202.642 447 206L450 222L446 220L450 224L451 217L454 217L454 224L466 222L466 221C454.213 220.089 461.367 207.876 463 201L462 201C459.581 204.881 457.532 205.852 453 206L453 194L447 192L443 193z"/>
<path style="fill:#5b5b5b; stroke:none;" d="M121 194L125 200L121 194z"/>
<path style="fill:#797979; stroke:none;" d="M128 194L125 200L130 203L128 194z"/>
<path style="fill:#c9c9c9; stroke:none;" d="M443 194C442.689 204.66 436.988 216.363 450 222L447 206C451.034 203.081 449.606 199.768 445 199L445 194L443 194z"/>
<path style="fill:#c2c2c2; stroke:none;" d="M178 195L172 197L172 205L175 205L173 224L175 224C180.895 216.327 182.338 204.026 178 195z"/>
<path style="fill:#8b8b8b; stroke:none;" d="M431 199C431 203.188 429.329 211.1 435 211L432 210L431 199z"/>
<path style="fill:#6d6d6d; stroke:none;" d="M422 203L422 206L425 206L425 203L422 203z"/>
<path style="fill:#565656; stroke:none;" d="M257 205C258.312 209.518 261.487 212.665 266 214L266 213L257 205z"/>
<path style="fill:#949494; stroke:none;" d="M96 207L106 235C92.8452 236.455 85.0557 250.012 94 261L96 245L102 252L106 252C104.255 245.857 100.401 238.742 110 238L112 235L99 207L96 207z"/>
<path style="fill:#181818; stroke:none;" d="M94 208L91 237L106 235C105.625 226.79 100.883 212.705 94 208z"/>
<path style="fill:#171717; stroke:none;" d="M524 211L517 233L522 232L523 235L528 235L529 235L531 222C526.921 219.505 527.037 215.455 527 211L524 211z"/>
<path style="fill:#6b6b6b; stroke:none;" d="M331 213C330.036 219.595 336.772 219.134 340 215C345.692 217.656 350.516 219.383 355 214L348 217C344.283 211.266 337.119 215.423 332 217L331 213z"/>
<path style="fill:#797979; stroke:none;" d="M269 215C270.796 218.321 275.051 219.429 276 215L284 215L269 215z"/>
<path style="fill:#393939; stroke:none;" d="M527 214C527.118 217.696 527.118 220.864 531 222L529 235L528 235L523 235L522 232L517 233L518 228L516 235C526.759 237.082 532.784 245.535 533 256C539.739 251.383 537 237.239 537 230L533 230C532.979 223.737 531.872 218.306 527 214z"/>
<path style="fill:#4b4b4b; stroke:none;" d="M195 224L199 222L199 345L200 345L200 221L195 224z"/>
<path style="fill:#636363; stroke:none;" d="M403 221L403 222L412 222L403 221z"/>
<path style="fill:#f4f4f4; stroke:none;" d="M423 221L423 345L444 345C444 336.86 440.846 323.32 442.728 315.961C443.81 311.735 448.475 307.87 451.438 304.873C460.186 296.028 472.381 286.444 482.572 279.501C486.526 276.807 504.615 265.914 500.087 260.51C496.437 256.154 490.443 259.021 486 259.741C479.874 260.733 458.909 261.281 454.903 256.848C446.01 247.007 436.047 224.873 423 221M179 345L199 345L199 222C183.254 229.662 180.72 248.876 166.71 257.566C160.727 261.278 149.876 258.684 143 259.576C138.005 260.223 122.522 254.611 122.752 263.965C122.857 268.254 129.224 270.719 132 273.125C140.801 280.755 149.673 288.191 158.711 295.328C165.525 300.708 177.069 308.062 179.475 317.015C181.563 324.779 179 336.758 179 345z"/>
<path style="fill:#b7b7b7; stroke:none;" d="M210 222L210 223L221 224L210 222z"/>
<path style="fill:#f6f6f6; stroke:none;" d="M248 236L248 233C238.12 232.213 219.145 218.156 210.318 224.028C204.826 227.681 208 247.937 208 254L208 345L414 345L414 255C414 248.251 417.336 228.542 412.397 223.603C408.379 219.586 402.714 223.546 398.91 225.407C388.91 230.3 377.47 233.92 367 237.757C353.12 242.843 337.534 241 323 241C304.853 241 284.962 243.316 267 240.791C260.486 239.875 254.602 236.42 248 236z"/>
<path style="fill:#8d8d8d; stroke:none;" d="M422 222L422 345L423 345L423 259C423 248.366 426.108 231.789 422 222z"/>
<path style="fill:#d5d5d5; stroke:none;" d="M208 223L207 263L207 345L208 345L208 262C208 250.007 205.272 234.159 210 223L208 223z"/>
<path style="fill:#7e7e7e; stroke:none;" d="M396 224L396 225L402 224L396 224z"/>
<path style="fill:#969696; stroke:none;" d="M193 224L184 234L195 224L193 224z"/>
<path style="fill:#545454; stroke:none;" d="M206 224L206 345L207 345L207 261C207 250.366 210.108 233.789 206 224z"/>
<path style="fill:#b1b1b1; stroke:none;" d="M376 233L376 234L402 225C395.066 222.547 382.451 230.111 376 233z"/>
<path style="fill:#bebebe; stroke:none;" d="M414 224L414 345L415 345L415 261C415 250.366 418.108 233.789 414 224z"/>
<path style="fill:#898989; stroke:none;" d="M225 225L225 226L245 233L245 232L225 225z"/>
<path style="fill:#757575; stroke:none;" d="M430 225L432 228L430 225z"/>
<path style="fill:#cdcdcd; stroke:none;" d="M78 227L76 231L75 243L76 243L78 236L80 236C79.6152 241.729 77.7029 252.865 85 255L84 228L82 228L83 233L78 227z"/>
<path style="fill:#3e3e3e; stroke:none;" d="M89 227L86 229C86 236.393 83.3961 250.995 90 256C90.3656 247.486 90.9951 242.001 99 238L99 237L91 237L89 227z"/>
<path style="fill:#c8c8c8; stroke:none;" d="M539 228L538 254C545.314 251.445 543.766 242.057 543 236L544 236L548 243L546 231L544 228L543 228L542 230L541 230L541 228L539 228z"/>
<path style="fill:#6a6a6a; stroke:none;" d="M110 230L112 235L110 238C106.286 238.123 104.437 238.424 103 242L109 239L110 247L116 253L128 253L119 248C118.574 242.137 114.201 234.048 110 230z"/>
<path style="fill:#989898; stroke:none;" d="M72 237L75 236L75 240L76 240L78 232L72 237z"/>
<path style="fill:#606060; stroke:none;" d="M371 234L371 235L378 233L371 234z"/>
<path style="fill:#9b9b9b; stroke:none;" d="M545 232L547 240L548 240L550 235L545 232z"/>
<path style="fill:#acacac; stroke:none;" d="M438 234L441 242L442 242L438 234z"/>
<path style="fill:#525252; stroke:none;" d="M182 235L182 238L183 238L184 235L182 235z"/>
<path style="fill:#838383; stroke:none;" d="M248 235L248 236L253 236L248 235z"/>
<path style="fill:#a1a1a1; stroke:none;" d="M361 238L361 239L373 236L361 238z"/>
<path style="fill:#5d5d5d; stroke:none;" d="M65 238L65 246L66 246L66 242L69 238L73 238L73 244L74 244L75 236L65 238z"/>
<path style="fill:#a7a7a7; stroke:none;" d="M78 236L76 243L75 243L75 240L74 240L74 245L80 251L81 251L80 236L78 236z"/>
<path style="fill:#9f9f9f; stroke:none;" d="M253 236L253 237L264 240L253 236z"/>
<path style="fill:#c0c0c0; stroke:none;" d="M516 236C518.193 243.127 519.321 244.449 517 252C525.043 249.271 525.621 236.316 516 236z"/>
<path style="fill:#9a9a9a; stroke:none;" d="M543 236L544 248L545 248L545 244L549 244L549 240L548 240L547 243L543 236z"/>
<path style="fill:#525252; stroke:none;" d="M548 236L549 244L545 244L543 253L544 253L551 245L551 240L556 243L554 250C562.132 244.728 554.374 237.338 548 236z"/>
<path style="fill:#272727; stroke:none;" d="M69 238L66 242L68.7677 257L60 275C69.6255 270.296 68.2171 257.207 80 258L73 238L69 238z"/>
<path style="fill:#555555; stroke:none;" d="M523 238L521 250L525 248L527 260C522.693 260 513.085 257.938 512 263L513 263L522 261L522 264L514 265L514 266L517 266L511 274L521 273L521 272L515 272L528 263L528 266L529 266L536 263L534 270L535 270L541 260L542 260L542 267L543 267C543.073 260.817 544.557 258.21 551 258L552 264L555 261L554 253L553 253L551 257L543 257L543 253L542 253L541 259L537 259L536 254L533 256C532.932 247.78 531.007 241.504 523 238z"/>
<path style="fill:#4e4e4e; stroke:none;" d="M264 239L264 240L361 240L331 239L264 239z"/>
<path style="fill:#9c9c9c; stroke:none;" d="M264 240L264 241L358 241L329 240L264 240z"/>
<path style="fill:#0b0b0b; stroke:none;" d="M551 240L551 245C545.451 246.697 543.495 251.534 543 257L551 257L556 243L551 240z"/>
<path style="fill:#aaaaaa; stroke:none;" d="M557 240L557 246L558 246L557 240z"/>
<path style="fill:#969696; stroke:none;" d="M85 241L85 255L82 255L82 258L87 257L85 241z"/>
<path style="fill:#626262; stroke:none;" d="M179 242L170 254L164 252C168.858 258.376 180.327 247.743 179 242z"/>
<path style="fill:#919191; stroke:none;" d="M537 242L537 259L541 259L541 254L538 254L537 242z"/>
<path style="fill:#808080; stroke:none;" d="M445 247L448 249L445 247z"/>
<path style="fill:#8f8f8f; stroke:none;" d="M66 248C68.515 256.336 62.4095 259.393 60 267L63 269C66.6804 262.532 72.7618 254.622 66 248z"/>
<path style="fill:#7f7f7f; stroke:none;" d="M542 248L541 254L542 254L544 248L542 248z"/>
<path style="fill:#6c6c6c; stroke:none;" d="M79 249L80 258L76 258L76 259L79 259L80 273L83 276L84 276L84 272L81 272L80 259L89 267C90.6664 264.606 91.3403 264.878 94 266L101 265L101 264L97 263L97 252L94 261L91 255L88 253L87 253L87 257L82 258L79 249z"/>
<path style="fill:#979797; stroke:none;" d="M554 250C553.627 258.704 555.041 266.741 563 272C564.441 263.742 557.549 257.131 554 250z"/>
<path style="fill:#8f8f8f; stroke:none;" d="M144 258L144 259C152.467 259 162.73 260.911 170 256L144 258z"/>
<path style="fill:#8c8c8c; stroke:none;" d="M454 256C458.248 262.21 470.063 259 477 259L454 256z"/>
<path style="fill:#717171; stroke:none;" d="M69 266L76 258C71.2672 256.396 70.1493 262.423 69 266z"/>
<path style="fill:#afafaf; stroke:none;" d="M123 266L128 258C123.494 257.095 118.262 262.783 123 266z"/>
<path style="fill:#939393; stroke:none;" d="M489 259L498 259C495.653 256.314 491.347 256.314 489 259z"/>
<path style="fill:#c3c3c3; stroke:none;" d="M73 258L58 281L67 277L62 286L70 282C68.801 286.697 65.6223 293.553 60 290L59 290C54.5167 296.502 60.6926 299.977 64 305L66 305L74.598 285.001L83 273C78.6624 270.199 79.0395 263.774 79 259L73 258z"/>
<path style="fill:#7a7a7a; stroke:none;" d="M544 258L543 267L544 267L546 258L544 258z"/>
<path style="fill:#cecece; stroke:none;" d="M542 276L547 276C545.897 282.448 551.075 292.99 557 296L563 293C562.623 287.331 559.999 281.904 555 279L557 275C559.807 281.084 563.655 281.978 570 282C569.57 278.654 567.888 276.115 571 274L571 273L565 266L564 266L564 277C557.849 272.272 552.484 265.781 551 258C542.364 258.659 542.005 268.901 542 276z"/>
<path style="fill:#c4c4c4; stroke:none;" d="M62 259L55 270L54 281L55 281C56.7929 277.938 63.2455 269.375 60 267L64 259L62 259z"/>
<path style="fill:#101010; stroke:none;" d="M80 259L81 272L84 272C82.7347 276.058 78.9122 277.351 77.1474 281.105C71.712 292.667 70.9317 311.626 55 314L46 345L51 345C54.8268 328.517 65.8819 319.168 76.0818 306.946C80.3449 301.838 81.835 296.033 86.716 291.138C90.3945 287.449 91.6434 280.064 97.1451 278.238C100.575 277.099 103.262 281.154 106.015 282.544C109.427 284.267 113.292 283.998 117 284C108.583 272.508 88.8505 273.826 83 259L80 259z"/>
<path style="fill:#6b6b6b; stroke:none;" d="M98 260L98 261L109 261L107 263L107 264L111 263L111 261L98 260z"/>
<path style="fill:#171717; stroke:none;" d="M541 260C533.484 272.997 516.654 271.387 508 283C513.522 283.522 519.479 277.554 523.985 279.171C533.693 282.654 539.44 296.659 544.414 304.424C553.445 318.521 568.647 327.358 572 345L578 345C572.976 330.151 575.42 309.92 554 309L546 286L543 286L539.117 275.035L541 260z"/>
<path style="fill:#949494; stroke:none;" d="M97 262L107 264L97 262z"/>
<path style="fill:#cbcbcb; stroke:none;" d="M101 261L101 263L109 263L109 261L101 261z"/>
<path style="fill:#c5c5c5; stroke:none;" d="M513 261L513 263L521 263L513 261z"/>
<path style="fill:#949494; stroke:none;" d="M517 261L517 262L521 262L521 263L516 263L516 264L522 264L522 261L517 261z"/>
<path style="fill:#131313; stroke:none;" d="M553 262C554.046 268.566 558.14 273.933 564 277C563.199 271.828 558.094 263.635 553 262z"/>
<path style="fill:#212121; stroke:none;" d="M527 263L515 272C520.022 271.944 528.804 269.69 527 263z"/>
<path style="fill:#7d7d7d; stroke:none;" d="M511 274L517 266C507.69 265.607 503.676 267.777 496 273L496 274L499 274L498 277C502.533 277 513.218 273.129 512 278L534 270L536 263L511 274z"/>
<path style="fill:#9b9b9b; stroke:none;" d="M89 264C89.9695 272.423 104.455 277.792 112 276L89 264z"/>
<path style="fill:#949494; stroke:none;" d="M106 266L112 274L112 275L125 278L125 275L134 277L128 270L131 275L115 264L106 266z"/>
<path style="fill:#adadad; stroke:none;" d="M496 269L499 267L496 269z"/>
<path style="fill:#7e7e7e; stroke:none;" d="M541 267L538.715 275.91L543 286L546 286C546.858 292.426 552.508 304.196 557.75 308.348C562.646 312.225 567.472 310.495 569 318C580.689 323.964 577.634 334.341 581 345L588 345L582 339L584 325L583 325L583 330L582 330L572 311L568 311C568.023 304.571 569.239 300.613 576 299L580 304C579.677 296.479 580.207 278.469 572 276L572 277C584.948 287.785 567.324 297.101 567 307C561.595 306.13 561.254 302.52 566 300L566 295L561 294L562 300C558.777 302.096 559.193 304.451 560 308L559 308C555.366 299.204 546.504 285.399 547 276L542 276L541 267z"/>
<path style="fill:#505050; stroke:none;" d="M106 268L108 271L108 272L100 271L100 272L114 274L106 268z"/>
<path style="fill:#5f5f5f; stroke:none;" d="M125 268L124 273L131 275L125 268z"/>
<path style="fill:#5d5d5d; stroke:none;" d="M495 269L490 276L498 273L497 269L495 269z"/>
<path style="fill:#777777; stroke:none;" d="M60 270L55 281L54 278L53 278L53 283L56 285L61 283L59 290L60 290L67 277L58 281L62 270L60 270z"/>
<path style="fill:#919191; stroke:none;" d="M50 276L54 274L54 278L55 278L56 271L50 276z"/>
<path style="fill:#2e2e2e; stroke:none;" d="M46 298L55 301C55.194 303.491 59.5058 310.404 61.1327 304.855C61.9671 302.009 57.8962 298.053 57.6073 295.025C57.2311 291.083 59.8318 286.693 61 283L56 285L53 283L54 274C44.2465 278.6 46 288.843 46 298z"/>
<path style="fill:#dadada; stroke:none;" d="M488 274L456 300L456 301L464 297C466.507 304.522 478.048 289.92 483 288C479.136 293.255 472.155 302.585 466.525 305.871C463.85 307.432 457.576 309.292 458.827 313.717C460.307 318.952 469.352 309.941 470.91 308.314C483.035 295.653 498.963 287.043 513 277L498 277L499 274L490 274L488 274z"/>
<path style="fill:#5e5e5e; stroke:none;" d="M568 274L568 278L572 276L568 274z"/>
<path style="fill:#d9d9d9; stroke:none;" d="M110 276L110 278L125 288L121 288L121 290L134 291C137.462 299.75 151.292 309.029 160 312L139 287L158 300L156 295L160 296L160 295L135 275L125 275L125 278L110 276z"/>
<path style="fill:#676767; stroke:none;" d="M556 275L555 279L566 291L562 283L565 288L567 288L570 283L570 282C563.208 281.924 560.741 279.403 556 275z"/>
<path style="fill:#313131; stroke:none;" d="M570 275L570 283L567 283L567 288L565 288L562 283L566 300C560.122 301.858 561.142 306.543 567 307C567.485 300.614 571.932 300.504 574.821 295.737C578.82 289.137 576.169 278.685 570 275z"/>
<path style="fill:#5d5d5d; stroke:none;" d="M42 305L51 299L51 298L46 298C46 289.734 45.8043 283.351 50 276C43.025 279.66 42.9197 297.452 42 305z"/>
<path style="fill:#747474; stroke:none;" d="M90 286L101 278C95.5818 276.12 91.9087 281.559 90 286z"/>
<path style="fill:#616161; stroke:none;" d="M107 277L107 278L116 282L107 277z"/>
<path style="fill:#f3f3f3; stroke:none;" d="M88 295C81.0235 297.012 79.8217 303.836 75.5856 308.871C66.288 319.923 53.2695 329.654 51 345L152 345C145.758 336.344 147.894 321.883 143.142 312.478C137.961 302.225 118.858 292.303 109.6 285.515C106.697 283.387 102.977 278.601 99.0895 278.748C93.5022 278.959 88.3305 290.286 88 295z"/>
<path style="fill:#4e4e4e; stroke:none;" d="M500 287L506 286L494 294L494 296C501.768 295.479 507.131 289.57 513 285L513 284L508 283L512 278L500 287z"/>
<path style="fill:#a9a9a9; stroke:none;" d="M510 288C518.455 283.637 519.85 279.071 529 284C524.145 273.927 514.171 280.74 510 288z"/>
<path style="fill:#f3f3f3; stroke:none;" d="M470 344L470 345L572 345C565.285 327.271 551.76 313.03 540.728 298.224C536.865 293.038 531.705 290.862 530 284C527.56 282.765 524.872 279.825 521.985 279.997C517.343 280.274 512.368 286.285 509 289.079C499.463 296.995 485.588 302.041 479.988 314.015C475.917 322.721 476.913 336.678 470 344z"/>
<path style="fill:#efefef; stroke:none;" d="M60 292C66.3497 291.418 69.017 288.194 70 282C64.2432 282.873 60.4547 286.093 60 292z"/>
<path style="fill:#838383; stroke:none;" d="M75 283L66 305L64 305L60 301C61.3323 305.518 59.4551 306.739 55 306L47 322C50.5799 319.71 52.0891 315.817 55.304 313.059C63.0667 306.398 80.7518 297.239 75 283z"/>
<path style="fill:#6e6e6e; stroke:none;" d="M106 283L106 284C117.96 290.823 132.947 301.666 142 312L143 312L144 309L151 315L147 302C136.94 298.221 123.203 294.533 116 286L123 287C119.776 281.904 111.443 284.01 106 283z"/>
<path style="fill:#969696; stroke:none;" d="M483 297L483 298L487 300L506 286L500 287L504 284C498.701 282.342 488.041 293.82 483 297z"/>
<path style="fill:#c0c0c0; stroke:none;" d="M89 290L90 290L93 285L89 290z"/>
<path style="fill:#a3a3a3; stroke:none;" d="M123 285L116 286C119.632 292.387 131.882 297.92 139 298L139 297L134 291L121 290L121 288L125 285L123 285z"/>
<path style="fill:#565656; stroke:none;" d="M530 285L530 286L533 287L530 285z"/>
<path style="fill:#bababa; stroke:none;" d="M530 286L538 295L538 294L530 286z"/>
<path style="fill:#939393; stroke:none;" d="M139 287C140.386 295.717 155.818 308.151 164 311L162 307L166 311L167 311L162 301L164 301L164 299L156 295L158 300L139 287z"/>
<path style="fill:#8b8b8b; stroke:none;" d="M464 297C454.379 300.776 442.368 308.654 442 320L444 320C444.54 312.772 451.021 304.981 458 303C455.517 307.514 453.965 311.044 458 315L483 288C477.42 289.33 467.47 302.836 464 297z"/>
<path style="fill:#c4c4c4; stroke:none;" d="M496 297L496 298L510 288L496 297z"/>
<path style="fill:#a7a7a7; stroke:none;" d="M563 290L557 293C554.707 299.42 555.579 302.206 559 308L560 308L562 300L561 294C564.423 294.579 565.865 294.397 567 291L563 290z"/>
<path style="fill:#c2c2c2; stroke:none;" d="M86 291L82 298L88 295L88 291L86 291z"/>
<path style="fill:#878787; stroke:none;" d="M535 291L540 296L538 291L535 291z"/>
<path style="fill:#797979; stroke:none;" d="M82 296L86 292L82 296z"/>
<path style="fill:#767676; stroke:none;" d="M487 300L482 298L472 308L475 306L473 315L479 314C483.384 307.136 490.75 300.702 498 297L498 296L494 296L494 294L498 294C492.881 292.079 490.571 297.15 487 300z"/>
<path style="fill:#494949; stroke:none;" d="M548 293C548.979 298.065 551.326 307.79 557 309L548 293z"/>
<path style="fill:#5b5b5b; stroke:none;" d="M540 296L542 301L543 301L540 296z"/>
<path style="fill:#6c6c6c; stroke:none;" d="M80 297L79 302L82 297L80 297z"/>
<path style="fill:#cfcfcf; stroke:none;" d="M39 330C47.8434 324.121 54.9989 311.377 55 301C40.0748 295.682 40.2885 320.022 39 330z"/>
<path style="fill:#a7a7a7; stroke:none;" d="M481 299L476 302L476 303L481 299z"/>
<path style="fill:#cacaca; stroke:none;" d="M568 311L572 311C572.334 317.118 575.467 321.379 581 324L576 299C568.585 299.995 568.005 304.386 568 311z"/>
<path style="fill:#a1a1a1; stroke:none;" d="M580 299L580 304L578 302L577 302C578.915 309.029 584.347 316.942 579 324L579 325L579 326L582 330L583 330L582 318L585 320L586 320L580 299z"/>
<path style="fill:#6d6d6d; stroke:none;" d="M162 301L167 311L166 311L162 307L164 316L165 316L165 312L168 312L168 305L172 307C169.799 302.708 166.724 301.317 162 301z"/>
<path style="fill:#060606; stroke:none;" d="M445 345C459.664 343.326 446.845 319.87 454 312L454 311L451 310L458 303C439.111 305.963 445 331.722 445 345z"/>
<path style="fill:#a2a2a2; stroke:none;" d="M41 304L36 320L37 320L40 318L40 322L41 322L44 305L41 304z"/>
<path style="fill:#a9a9a9; stroke:none;" d="M77 304L72 312C75.4055 310.32 78.047 307.999 77 304z"/>
<path style="fill:#1e1e1e; stroke:none;" d="M145 304L151 315L143 309C144.043 316.097 144.051 331.096 154 329L152 335L166 330L163 342L151 337C151.3 349.387 168.781 345 178 345C178 331.21 183.621 311.8 168 305L168 312L165 312C162.054 321.685 149.935 305.692 145 304z"/>
<path style="fill:#aeaeae; stroke:none;" d="M479 314L489 304L479 314z"/>
<path style="fill:#777777; stroke:none;" d="M544 304L549 311L544 304z"/>
<path style="fill:#242424; stroke:none;" d="M474 306L458 318L455 307L454 307L451 310L454 311L454 312C446.307 317.135 456.209 336.306 449 344L449 345C458.265 345 472.85 348.607 473 336L459 343L457 330L469 336L469 329L474 330L478 312L473 315L474 306z"/>
<path style="fill:#424242; stroke:none;" d="M44 322L42 345C51.4198 343.462 49.0289 332.829 50.4707 326.17C51.4098 321.832 54.3439 318.406 55 314C59.3952 313.67 63.6534 311.802 66 308L55.304 312.343L44 322z"/>
<path style="fill:#6d6d6d; stroke:none;" d="M174 308L176 311L174 308z"/>
<path style="fill:#b7b7b7; stroke:none;" d="M152 309L164 317C163.858 312.704 163.06 310.701 159 309L160 312L152 309z"/>
<path style="fill:#757575; stroke:none;" d="M70 310L69 315L70 315L73 310L70 310z"/>
<path style="fill:#636363; stroke:none;" d="M464 315L469 312L464 315z"/>
<path style="fill:#7c7c7c; stroke:none;" d="M552 312L553 316L554 316L552 312z"/>
<path style="fill:#989898; stroke:none;" d="M178 314L179 323L180 323L178 314z"/>
<path style="fill:#b8b8b8; stroke:none;" d="M478 314L474 333L475 333C477.665 326.917 480.778 320.62 478 314z"/>
<path style="fill:#959595; stroke:none;" d="M144 315L146 328L147 328L144 315z"/>
<path style="fill:#6c6c6c; stroke:none;" d="M458 315C458.614 317.851 459.303 317.854 462 317L458 315z"/>
<path style="fill:#4f4f4f; stroke:none;" d="M477 315L476 326L477 326L477 315z"/>
<path style="fill:#b5b5b5; stroke:none;" d="M61 324L68 317L61 324z"/>
<path style="fill:#4e4e4e; stroke:none;" d="M463 319L463 320L466 324L462 321L461 321C462.099 324.321 463.59 324.737 467 325L469 317L463 319z"/>
<path style="fill:#272727; stroke:none;" d="M37 318C33.5506 328.579 27.1758 340.232 16 344L16 345L34 345L38 334L39 334L39 339L40 339L40 318L37 318z"/>
<path style="fill:#535353; stroke:none;" d="M569 318C570.469 320.704 574.227 322.882 574.799 325.924C576.191 333.334 570.081 341.537 581 345C578.825 333.712 579.064 327.383 572 318L569 318z"/>
<path style="fill:#464646; stroke:none;" d="M582 318L582 339L588 345L593 345L585 324L586 324L587 328L588 328L585 318L582 318z"/>
<path style="fill:#808080; stroke:none;" d="M462 320L466 324L462 320z"/>
<path style="fill:#8d8d8d; stroke:none;" d="M586 320L587 324L588 324L586 320z"/>
<path style="fill:#a1a1a1; stroke:none;" d="M35 321L29 333C32.5098 330.09 35.9834 325.772 35 321z"/>
<path style="fill:#6b6b6b; stroke:none;" d="M444 322L444 345L445 345L444 322z"/>
<path style="fill:#c3c3c3; stroke:none;" d="M560 322L568 338L569 338C568.358 331.772 564.852 325.895 560 322z"/>
<path style="fill:#797979; stroke:none;" d="M60 323L55 333L60 323z"/>
<path style="fill:#919191; stroke:none;" d="M178 323L178 345L179 345L178 323z"/>
<path style="fill:#0f0f0f; stroke:none;" d="M585 324C585 336.096 590.233 344.999 603 345L603 344L585 324z"/>
<path style="fill:#9a9a9a; stroke:none;" d="M42 325L40 339L39 339L39 334L38 334L34 345C48.4679 344.949 42.4874 334.024 44 325L42 325z"/>
<path style="fill:#484848; stroke:none;" d="M474 328L469 329L469 336L460 339L459 339L459 343C465.236 342.51 475.986 335.159 474 328z"/>
<path style="fill:#444444; stroke:none;" d="M149 330L150 342L151 342L151 337L156 339L156 335L152 335L154 329L149 330z"/>
<path style="fill:#969696; stroke:none;" d="M163 342L166 330C157.257 330.721 151.666 341.104 163 342z"/>
<path style="fill:#afafaf; stroke:none;" d="M457 330L460 341C469.361 338.323 464.77 330.522 457 330z"/>
<path style="fill:#646464; stroke:none;" d="M28 333L23 340L30 333L28 333z"/>
<path style="fill:#a9a9a9; stroke:none;" d="M149 336L152 344L149 336z"/>
<path style="fill:#5a5a5a; stroke:none;" d="M570 339L571 344L572 344L570 339z"/>
<path style="fill:#8e8e8e; stroke:none;" d="M602 343L605 345L602 343z"/>
</svg>
